%TF.GenerationSoftware,KiCad,Pcbnew,(7.0.0)*%
%TF.CreationDate,2023-03-22T16:08:00+00:00*%
%TF.ProjectId,B3LPD,42334c50-442e-46b6-9963-61645f706362,rev?*%
%TF.SameCoordinates,Original*%
%TF.FileFunction,Legend,Bot*%
%TF.FilePolarity,Positive*%
%FSLAX46Y46*%
G04 Gerber Fmt 4.6, Leading zero omitted, Abs format (unit mm)*
G04 Created by KiCad (PCBNEW (7.0.0)) date 2023-03-22 16:08:00*
%MOMM*%
%LPD*%
G01*
G04 APERTURE LIST*
%ADD10C,0.010000*%
G04 APERTURE END LIST*
%TO.C,Ref\u002A\u002A*%
G36*
X114056495Y-89215833D02*
G01*
X114160774Y-89284552D01*
X114252377Y-89391140D01*
X114273526Y-89424115D01*
X114320935Y-89514549D01*
X114348858Y-89605873D01*
X114360441Y-89711499D01*
X114358831Y-89844838D01*
X114355404Y-89896060D01*
X114326818Y-90060119D01*
X114271845Y-90193009D01*
X114189142Y-90297258D01*
X114077367Y-90375396D01*
X114016898Y-90396211D01*
X113923670Y-90407211D01*
X113829227Y-90401456D01*
X113753524Y-90378739D01*
X113691037Y-90338605D01*
X113597308Y-90242731D01*
X113526598Y-90121579D01*
X113480310Y-89982554D01*
X113459846Y-89833058D01*
X113466607Y-89680495D01*
X113501995Y-89532268D01*
X113567412Y-89395779D01*
X113625485Y-89318885D01*
X113724035Y-89236510D01*
X113832482Y-89191850D01*
X113945183Y-89184945D01*
X114056495Y-89215833D01*
G37*
D10*
X114056495Y-89215833D02*
X114160774Y-89284552D01*
X114252377Y-89391140D01*
X114273526Y-89424115D01*
X114320935Y-89514549D01*
X114348858Y-89605873D01*
X114360441Y-89711499D01*
X114358831Y-89844838D01*
X114355404Y-89896060D01*
X114326818Y-90060119D01*
X114271845Y-90193009D01*
X114189142Y-90297258D01*
X114077367Y-90375396D01*
X114016898Y-90396211D01*
X113923670Y-90407211D01*
X113829227Y-90401456D01*
X113753524Y-90378739D01*
X113691037Y-90338605D01*
X113597308Y-90242731D01*
X113526598Y-90121579D01*
X113480310Y-89982554D01*
X113459846Y-89833058D01*
X113466607Y-89680495D01*
X113501995Y-89532268D01*
X113567412Y-89395779D01*
X113625485Y-89318885D01*
X113724035Y-89236510D01*
X113832482Y-89191850D01*
X113945183Y-89184945D01*
X114056495Y-89215833D01*
G36*
X111907783Y-84187395D02*
G01*
X111912177Y-84189408D01*
X112037886Y-84269236D01*
X112141258Y-84377684D01*
X112220983Y-84507832D01*
X112275750Y-84652762D01*
X112304247Y-84805552D01*
X112305165Y-84959285D01*
X112277192Y-85107040D01*
X112219018Y-85241899D01*
X112129332Y-85356942D01*
X112099866Y-85383177D01*
X112037247Y-85428019D01*
X111983580Y-85454096D01*
X111903131Y-85469605D01*
X111771434Y-85462870D01*
X111644675Y-85418719D01*
X111528069Y-85340118D01*
X111426832Y-85230034D01*
X111346178Y-85091436D01*
X111328363Y-85047507D01*
X111291237Y-84908853D01*
X111273751Y-84759212D01*
X111277036Y-84614085D01*
X111302222Y-84488974D01*
X111355102Y-84372453D01*
X111438131Y-84267009D01*
X111540300Y-84193098D01*
X111656223Y-84153404D01*
X111780514Y-84150609D01*
X111907783Y-84187395D01*
G37*
X111907783Y-84187395D02*
X111912177Y-84189408D01*
X112037886Y-84269236D01*
X112141258Y-84377684D01*
X112220983Y-84507832D01*
X112275750Y-84652762D01*
X112304247Y-84805552D01*
X112305165Y-84959285D01*
X112277192Y-85107040D01*
X112219018Y-85241899D01*
X112129332Y-85356942D01*
X112099866Y-85383177D01*
X112037247Y-85428019D01*
X111983580Y-85454096D01*
X111903131Y-85469605D01*
X111771434Y-85462870D01*
X111644675Y-85418719D01*
X111528069Y-85340118D01*
X111426832Y-85230034D01*
X111346178Y-85091436D01*
X111328363Y-85047507D01*
X111291237Y-84908853D01*
X111273751Y-84759212D01*
X111277036Y-84614085D01*
X111302222Y-84488974D01*
X111355102Y-84372453D01*
X111438131Y-84267009D01*
X111540300Y-84193098D01*
X111656223Y-84153404D01*
X111780514Y-84150609D01*
X111907783Y-84187395D01*
G36*
X109324396Y-85520696D02*
G01*
X109473644Y-85549674D01*
X109608097Y-85616651D01*
X109725039Y-85719367D01*
X109821756Y-85855562D01*
X109895534Y-86022979D01*
X109928317Y-86155359D01*
X109937919Y-86318490D01*
X109915105Y-86474283D01*
X109862215Y-86616823D01*
X109781587Y-86740194D01*
X109675561Y-86838480D01*
X109546476Y-86905766D01*
X109505981Y-86918138D01*
X109368433Y-86932741D01*
X109229421Y-86908893D01*
X109096088Y-86848501D01*
X108975578Y-86753469D01*
X108963439Y-86741075D01*
X108862438Y-86612269D01*
X108791437Y-86471957D01*
X108749153Y-86325158D01*
X108734306Y-86176892D01*
X108745611Y-86032181D01*
X108781787Y-85896042D01*
X108841550Y-85773497D01*
X108923618Y-85669565D01*
X109026708Y-85589266D01*
X109149538Y-85537620D01*
X109290826Y-85519648D01*
X109324396Y-85520696D01*
G37*
X109324396Y-85520696D02*
X109473644Y-85549674D01*
X109608097Y-85616651D01*
X109725039Y-85719367D01*
X109821756Y-85855562D01*
X109895534Y-86022979D01*
X109928317Y-86155359D01*
X109937919Y-86318490D01*
X109915105Y-86474283D01*
X109862215Y-86616823D01*
X109781587Y-86740194D01*
X109675561Y-86838480D01*
X109546476Y-86905766D01*
X109505981Y-86918138D01*
X109368433Y-86932741D01*
X109229421Y-86908893D01*
X109096088Y-86848501D01*
X108975578Y-86753469D01*
X108963439Y-86741075D01*
X108862438Y-86612269D01*
X108791437Y-86471957D01*
X108749153Y-86325158D01*
X108734306Y-86176892D01*
X108745611Y-86032181D01*
X108781787Y-85896042D01*
X108841550Y-85773497D01*
X108923618Y-85669565D01*
X109026708Y-85589266D01*
X109149538Y-85537620D01*
X109290826Y-85519648D01*
X109324396Y-85520696D01*
G36*
X108657710Y-94591520D02*
G01*
X108786021Y-94643000D01*
X108895741Y-94729390D01*
X108959472Y-94809452D01*
X109027536Y-94945947D01*
X109063073Y-95095692D01*
X109067763Y-95252620D01*
X109043288Y-95410661D01*
X108991330Y-95563748D01*
X108913568Y-95705810D01*
X108811686Y-95830781D01*
X108687364Y-95932590D01*
X108542283Y-96005170D01*
X108493328Y-96019203D01*
X108368434Y-96031679D01*
X108240263Y-96018125D01*
X108128001Y-95979719D01*
X108044890Y-95927135D01*
X107943698Y-95826128D01*
X107870926Y-95703956D01*
X107826058Y-95566275D01*
X107808579Y-95418741D01*
X107817971Y-95267009D01*
X107853719Y-95116737D01*
X107915307Y-94973580D01*
X108002218Y-94843194D01*
X108113936Y-94731236D01*
X108249946Y-94643361D01*
X108371667Y-94596797D01*
X108517396Y-94575827D01*
X108657710Y-94591520D01*
G37*
X108657710Y-94591520D02*
X108786021Y-94643000D01*
X108895741Y-94729390D01*
X108959472Y-94809452D01*
X109027536Y-94945947D01*
X109063073Y-95095692D01*
X109067763Y-95252620D01*
X109043288Y-95410661D01*
X108991330Y-95563748D01*
X108913568Y-95705810D01*
X108811686Y-95830781D01*
X108687364Y-95932590D01*
X108542283Y-96005170D01*
X108493328Y-96019203D01*
X108368434Y-96031679D01*
X108240263Y-96018125D01*
X108128001Y-95979719D01*
X108044890Y-95927135D01*
X107943698Y-95826128D01*
X107870926Y-95703956D01*
X107826058Y-95566275D01*
X107808579Y-95418741D01*
X107817971Y-95267009D01*
X107853719Y-95116737D01*
X107915307Y-94973580D01*
X108002218Y-94843194D01*
X108113936Y-94731236D01*
X108249946Y-94643361D01*
X108371667Y-94596797D01*
X108517396Y-94575827D01*
X108657710Y-94591520D01*
G36*
X110224010Y-83881906D02*
G01*
X110360794Y-83930753D01*
X110424485Y-83968032D01*
X110539931Y-84065474D01*
X110631925Y-84184826D01*
X110699977Y-84320110D01*
X110743602Y-84465347D01*
X110762312Y-84614560D01*
X110755621Y-84761771D01*
X110723041Y-84901000D01*
X110664085Y-85026270D01*
X110578266Y-85131603D01*
X110465097Y-85211021D01*
X110453868Y-85216661D01*
X110379501Y-85248332D01*
X110313856Y-85260731D01*
X110234085Y-85258561D01*
X110190020Y-85253185D01*
X110044347Y-85208835D01*
X109913409Y-85126064D01*
X109799456Y-85006596D01*
X109704737Y-84852160D01*
X109665257Y-84753623D01*
X109629786Y-84590671D01*
X109624304Y-84423652D01*
X109650245Y-84267946D01*
X109678781Y-84188264D01*
X109752610Y-84061517D01*
X109849065Y-83965127D01*
X109963129Y-83901474D01*
X110089783Y-83872941D01*
X110224010Y-83881906D01*
G37*
X110224010Y-83881906D02*
X110360794Y-83930753D01*
X110424485Y-83968032D01*
X110539931Y-84065474D01*
X110631925Y-84184826D01*
X110699977Y-84320110D01*
X110743602Y-84465347D01*
X110762312Y-84614560D01*
X110755621Y-84761771D01*
X110723041Y-84901000D01*
X110664085Y-85026270D01*
X110578266Y-85131603D01*
X110465097Y-85211021D01*
X110453868Y-85216661D01*
X110379501Y-85248332D01*
X110313856Y-85260731D01*
X110234085Y-85258561D01*
X110190020Y-85253185D01*
X110044347Y-85208835D01*
X109913409Y-85126064D01*
X109799456Y-85006596D01*
X109704737Y-84852160D01*
X109665257Y-84753623D01*
X109629786Y-84590671D01*
X109624304Y-84423652D01*
X109650245Y-84267946D01*
X109678781Y-84188264D01*
X109752610Y-84061517D01*
X109849065Y-83965127D01*
X109963129Y-83901474D01*
X110089783Y-83872941D01*
X110224010Y-83881906D01*
G36*
X109468334Y-92678493D02*
G01*
X109598072Y-92716256D01*
X109714015Y-92787451D01*
X109809326Y-92891467D01*
X109885015Y-93036603D01*
X109927454Y-93200451D01*
X109932818Y-93370429D01*
X109920119Y-93481008D01*
X109895660Y-93588002D01*
X109855996Y-93682754D01*
X109795721Y-93781476D01*
X109781903Y-93801345D01*
X109686674Y-93916005D01*
X109584443Y-93997610D01*
X109465599Y-94054097D01*
X109423281Y-94067292D01*
X109280145Y-94085049D01*
X109140843Y-94063323D01*
X109012527Y-94003957D01*
X108902349Y-93908797D01*
X108865556Y-93862482D01*
X108790129Y-93724030D01*
X108747513Y-93569970D01*
X108737037Y-93407558D01*
X108758029Y-93244048D01*
X108809819Y-93086695D01*
X108891735Y-92942755D01*
X109003106Y-92819483D01*
X109064722Y-92771901D01*
X109194821Y-92705706D01*
X109331638Y-92674773D01*
X109468334Y-92678493D01*
G37*
X109468334Y-92678493D02*
X109598072Y-92716256D01*
X109714015Y-92787451D01*
X109809326Y-92891467D01*
X109885015Y-93036603D01*
X109927454Y-93200451D01*
X109932818Y-93370429D01*
X109920119Y-93481008D01*
X109895660Y-93588002D01*
X109855996Y-93682754D01*
X109795721Y-93781476D01*
X109781903Y-93801345D01*
X109686674Y-93916005D01*
X109584443Y-93997610D01*
X109465599Y-94054097D01*
X109423281Y-94067292D01*
X109280145Y-94085049D01*
X109140843Y-94063323D01*
X109012527Y-94003957D01*
X108902349Y-93908797D01*
X108865556Y-93862482D01*
X108790129Y-93724030D01*
X108747513Y-93569970D01*
X108737037Y-93407558D01*
X108758029Y-93244048D01*
X108809819Y-93086695D01*
X108891735Y-92942755D01*
X109003106Y-92819483D01*
X109064722Y-92771901D01*
X109194821Y-92705706D01*
X109331638Y-92674773D01*
X109468334Y-92678493D01*
G36*
X111031267Y-89130918D02*
G01*
X111111250Y-89137024D01*
X111175195Y-89155985D01*
X111244102Y-89193376D01*
X111282535Y-89218957D01*
X111398725Y-89327112D01*
X111481659Y-89461353D01*
X111531385Y-89621778D01*
X111547950Y-89808481D01*
X111532744Y-89963475D01*
X111486343Y-90115367D01*
X111412602Y-90248828D01*
X111315421Y-90356889D01*
X111198700Y-90432580D01*
X111176321Y-90442084D01*
X111046475Y-90471642D01*
X110914769Y-90461627D01*
X110788007Y-90413387D01*
X110672996Y-90328274D01*
X110613383Y-90264230D01*
X110538544Y-90148700D01*
X110493076Y-90015960D01*
X110472848Y-89856269D01*
X110472378Y-89740014D01*
X110497534Y-89565416D01*
X110555623Y-89416737D01*
X110647069Y-89293036D01*
X110772298Y-89193376D01*
X110789819Y-89182773D01*
X110855706Y-89150152D01*
X110921500Y-89134668D01*
X111008200Y-89130745D01*
X111031267Y-89130918D01*
G37*
X111031267Y-89130918D02*
X111111250Y-89137024D01*
X111175195Y-89155985D01*
X111244102Y-89193376D01*
X111282535Y-89218957D01*
X111398725Y-89327112D01*
X111481659Y-89461353D01*
X111531385Y-89621778D01*
X111547950Y-89808481D01*
X111532744Y-89963475D01*
X111486343Y-90115367D01*
X111412602Y-90248828D01*
X111315421Y-90356889D01*
X111198700Y-90432580D01*
X111176321Y-90442084D01*
X111046475Y-90471642D01*
X110914769Y-90461627D01*
X110788007Y-90413387D01*
X110672996Y-90328274D01*
X110613383Y-90264230D01*
X110538544Y-90148700D01*
X110493076Y-90015960D01*
X110472848Y-89856269D01*
X110472378Y-89740014D01*
X110497534Y-89565416D01*
X110555623Y-89416737D01*
X110647069Y-89293036D01*
X110772298Y-89193376D01*
X110789819Y-89182773D01*
X110855706Y-89150152D01*
X110921500Y-89134668D01*
X111008200Y-89130745D01*
X111031267Y-89130918D01*
G36*
X110281466Y-94346416D02*
G01*
X110415579Y-94370241D01*
X110532610Y-94429811D01*
X110629302Y-94521226D01*
X110702399Y-94640584D01*
X110748645Y-94783983D01*
X110764783Y-94947522D01*
X110764669Y-94961769D01*
X110743386Y-95141130D01*
X110687859Y-95308622D01*
X110601709Y-95457851D01*
X110488560Y-95582424D01*
X110352033Y-95675949D01*
X110338221Y-95682546D01*
X110241229Y-95710611D01*
X110128249Y-95721036D01*
X110017213Y-95713352D01*
X109926051Y-95687090D01*
X109894583Y-95668582D01*
X109832007Y-95619596D01*
X109772952Y-95561153D01*
X109702435Y-95461886D01*
X109646021Y-95326461D01*
X109620658Y-95181311D01*
X109624073Y-95032071D01*
X109653995Y-94884375D01*
X109708150Y-94743857D01*
X109784268Y-94616152D01*
X109880076Y-94506895D01*
X109993302Y-94421719D01*
X110121673Y-94366258D01*
X110262918Y-94346148D01*
X110281466Y-94346416D01*
G37*
X110281466Y-94346416D02*
X110415579Y-94370241D01*
X110532610Y-94429811D01*
X110629302Y-94521226D01*
X110702399Y-94640584D01*
X110748645Y-94783983D01*
X110764783Y-94947522D01*
X110764669Y-94961769D01*
X110743386Y-95141130D01*
X110687859Y-95308622D01*
X110601709Y-95457851D01*
X110488560Y-95582424D01*
X110352033Y-95675949D01*
X110338221Y-95682546D01*
X110241229Y-95710611D01*
X110128249Y-95721036D01*
X110017213Y-95713352D01*
X109926051Y-95687090D01*
X109894583Y-95668582D01*
X109832007Y-95619596D01*
X109772952Y-95561153D01*
X109702435Y-95461886D01*
X109646021Y-95326461D01*
X109620658Y-95181311D01*
X109624073Y-95032071D01*
X109653995Y-94884375D01*
X109708150Y-94743857D01*
X109784268Y-94616152D01*
X109880076Y-94506895D01*
X109993302Y-94421719D01*
X110121673Y-94366258D01*
X110262918Y-94346148D01*
X110281466Y-94346416D01*
G36*
X108492288Y-87246709D02*
G01*
X108631042Y-87283434D01*
X108757426Y-87352560D01*
X108867522Y-87450296D01*
X108957409Y-87572855D01*
X109023170Y-87716447D01*
X109060886Y-87877283D01*
X109066639Y-88051573D01*
X109065867Y-88062404D01*
X109036380Y-88222626D01*
X108976686Y-88369209D01*
X108891260Y-88495436D01*
X108784582Y-88594590D01*
X108661127Y-88659953D01*
X108597024Y-88678661D01*
X108450386Y-88692628D01*
X108308085Y-88668801D01*
X108174721Y-88610297D01*
X108054897Y-88520234D01*
X107953215Y-88401731D01*
X107874279Y-88257906D01*
X107822688Y-88091877D01*
X107816840Y-88060807D01*
X107806190Y-87882378D01*
X107835638Y-87714275D01*
X107904301Y-87559635D01*
X108011296Y-87421598D01*
X108047206Y-87385896D01*
X108113814Y-87328956D01*
X108177481Y-87291941D01*
X108253287Y-87265099D01*
X108345081Y-87246174D01*
X108492288Y-87246709D01*
G37*
X108492288Y-87246709D02*
X108631042Y-87283434D01*
X108757426Y-87352560D01*
X108867522Y-87450296D01*
X108957409Y-87572855D01*
X109023170Y-87716447D01*
X109060886Y-87877283D01*
X109066639Y-88051573D01*
X109065867Y-88062404D01*
X109036380Y-88222626D01*
X108976686Y-88369209D01*
X108891260Y-88495436D01*
X108784582Y-88594590D01*
X108661127Y-88659953D01*
X108597024Y-88678661D01*
X108450386Y-88692628D01*
X108308085Y-88668801D01*
X108174721Y-88610297D01*
X108054897Y-88520234D01*
X107953215Y-88401731D01*
X107874279Y-88257906D01*
X107822688Y-88091877D01*
X107816840Y-88060807D01*
X107806190Y-87882378D01*
X107835638Y-87714275D01*
X107904301Y-87559635D01*
X108011296Y-87421598D01*
X108047206Y-87385896D01*
X108113814Y-87328956D01*
X108177481Y-87291941D01*
X108253287Y-87265099D01*
X108345081Y-87246174D01*
X108492288Y-87246709D01*
G36*
X105445421Y-85049036D02*
G01*
X105615518Y-85085429D01*
X105769766Y-85157080D01*
X105904403Y-85259977D01*
X106015667Y-85390104D01*
X106099799Y-85543448D01*
X106153035Y-85715993D01*
X106171617Y-85903726D01*
X106171051Y-85937554D01*
X106146993Y-86115836D01*
X106088489Y-86271496D01*
X105996917Y-86402464D01*
X105873655Y-86506671D01*
X105720080Y-86582046D01*
X105669684Y-86597797D01*
X105576850Y-86612612D01*
X105465837Y-86611017D01*
X105384278Y-86600883D01*
X105219795Y-86551989D01*
X105072384Y-86470366D01*
X104945080Y-86361233D01*
X104840920Y-86229808D01*
X104762939Y-86081310D01*
X104714175Y-85920960D01*
X104697663Y-85753975D01*
X104716440Y-85585575D01*
X104773540Y-85420978D01*
X104820002Y-85336913D01*
X104923316Y-85210212D01*
X105049569Y-85118983D01*
X105197859Y-85063798D01*
X105367283Y-85045228D01*
X105445421Y-85049036D01*
G37*
X105445421Y-85049036D02*
X105615518Y-85085429D01*
X105769766Y-85157080D01*
X105904403Y-85259977D01*
X106015667Y-85390104D01*
X106099799Y-85543448D01*
X106153035Y-85715993D01*
X106171617Y-85903726D01*
X106171051Y-85937554D01*
X106146993Y-86115836D01*
X106088489Y-86271496D01*
X105996917Y-86402464D01*
X105873655Y-86506671D01*
X105720080Y-86582046D01*
X105669684Y-86597797D01*
X105576850Y-86612612D01*
X105465837Y-86611017D01*
X105384278Y-86600883D01*
X105219795Y-86551989D01*
X105072384Y-86470366D01*
X104945080Y-86361233D01*
X104840920Y-86229808D01*
X104762939Y-86081310D01*
X104714175Y-85920960D01*
X104697663Y-85753975D01*
X104716440Y-85585575D01*
X104773540Y-85420978D01*
X104820002Y-85336913D01*
X104923316Y-85210212D01*
X105049569Y-85118983D01*
X105197859Y-85063798D01*
X105367283Y-85045228D01*
X105445421Y-85049036D01*
G36*
X113309403Y-87592628D02*
G01*
X113421864Y-87639014D01*
X113523291Y-87720143D01*
X113609322Y-87832986D01*
X113675592Y-87974516D01*
X113685628Y-88008374D01*
X113702980Y-88113370D01*
X113709378Y-88234566D01*
X113704382Y-88354269D01*
X113687551Y-88454787D01*
X113662035Y-88526165D01*
X113600278Y-88635200D01*
X113520833Y-88728787D01*
X113433746Y-88793518D01*
X113406748Y-88806565D01*
X113288053Y-88839254D01*
X113173050Y-88833728D01*
X113065418Y-88793338D01*
X112968836Y-88721436D01*
X112886983Y-88621373D01*
X112823537Y-88496502D01*
X112782178Y-88350173D01*
X112766586Y-88185738D01*
X112766426Y-88150609D01*
X112768967Y-88066189D01*
X112778857Y-88001439D01*
X112799700Y-87939385D01*
X112835100Y-87863051D01*
X112864451Y-87807820D01*
X112937761Y-87706085D01*
X113023474Y-87637328D01*
X113128723Y-87595038D01*
X113190272Y-87584012D01*
X113309403Y-87592628D01*
G37*
X113309403Y-87592628D02*
X113421864Y-87639014D01*
X113523291Y-87720143D01*
X113609322Y-87832986D01*
X113675592Y-87974516D01*
X113685628Y-88008374D01*
X113702980Y-88113370D01*
X113709378Y-88234566D01*
X113704382Y-88354269D01*
X113687551Y-88454787D01*
X113662035Y-88526165D01*
X113600278Y-88635200D01*
X113520833Y-88728787D01*
X113433746Y-88793518D01*
X113406748Y-88806565D01*
X113288053Y-88839254D01*
X113173050Y-88833728D01*
X113065418Y-88793338D01*
X112968836Y-88721436D01*
X112886983Y-88621373D01*
X112823537Y-88496502D01*
X112782178Y-88350173D01*
X112766586Y-88185738D01*
X112766426Y-88150609D01*
X112768967Y-88066189D01*
X112778857Y-88001439D01*
X112799700Y-87939385D01*
X112835100Y-87863051D01*
X112864451Y-87807820D01*
X112937761Y-87706085D01*
X113023474Y-87637328D01*
X113128723Y-87595038D01*
X113190272Y-87584012D01*
X113309403Y-87592628D01*
G36*
X112671794Y-92419648D02*
G01*
X112781952Y-92472902D01*
X112879272Y-92563715D01*
X112959977Y-92690839D01*
X112969829Y-92711257D01*
X112995564Y-92773009D01*
X113010250Y-92831976D01*
X113016668Y-92903170D01*
X113017603Y-93001600D01*
X113008332Y-93137008D01*
X112969336Y-93304979D01*
X112901496Y-93447789D01*
X112806512Y-93562142D01*
X112686082Y-93644745D01*
X112607069Y-93672847D01*
X112500325Y-93688321D01*
X112395944Y-93683686D01*
X112311024Y-93658321D01*
X112248758Y-93614120D01*
X112175344Y-93537235D01*
X112111192Y-93446201D01*
X112067682Y-93355194D01*
X112059899Y-93329168D01*
X112041300Y-93218369D01*
X112036091Y-93090016D01*
X112044328Y-92961704D01*
X112066066Y-92851025D01*
X112085391Y-92795475D01*
X112149483Y-92670052D01*
X112232768Y-92561128D01*
X112326155Y-92481613D01*
X112428068Y-92430799D01*
X112552574Y-92405198D01*
X112671794Y-92419648D01*
G37*
X112671794Y-92419648D02*
X112781952Y-92472902D01*
X112879272Y-92563715D01*
X112959977Y-92690839D01*
X112969829Y-92711257D01*
X112995564Y-92773009D01*
X113010250Y-92831976D01*
X113016668Y-92903170D01*
X113017603Y-93001600D01*
X113008332Y-93137008D01*
X112969336Y-93304979D01*
X112901496Y-93447789D01*
X112806512Y-93562142D01*
X112686082Y-93644745D01*
X112607069Y-93672847D01*
X112500325Y-93688321D01*
X112395944Y-93683686D01*
X112311024Y-93658321D01*
X112248758Y-93614120D01*
X112175344Y-93537235D01*
X112111192Y-93446201D01*
X112067682Y-93355194D01*
X112059899Y-93329168D01*
X112041300Y-93218369D01*
X112036091Y-93090016D01*
X112044328Y-92961704D01*
X112066066Y-92851025D01*
X112085391Y-92795475D01*
X112149483Y-92670052D01*
X112232768Y-92561128D01*
X112326155Y-92481613D01*
X112428068Y-92430799D01*
X112552574Y-92405198D01*
X112671794Y-92419648D01*
G36*
X106544701Y-87112320D02*
G01*
X106692415Y-87141724D01*
X106824708Y-87206786D01*
X106949830Y-87310635D01*
X107051495Y-87432326D01*
X107136130Y-87592533D01*
X107184078Y-87773433D01*
X107191239Y-87831876D01*
X107188568Y-88007946D01*
X107150451Y-88172135D01*
X107079752Y-88319485D01*
X106979332Y-88445034D01*
X106852055Y-88543822D01*
X106700783Y-88610889D01*
X106639471Y-88623706D01*
X106522491Y-88628555D01*
X106397786Y-88615246D01*
X106283536Y-88584910D01*
X106245261Y-88568610D01*
X106126138Y-88494800D01*
X106013745Y-88393870D01*
X105919029Y-88276766D01*
X105852937Y-88154433D01*
X105821796Y-88048996D01*
X105802268Y-87909904D01*
X105800398Y-87765952D01*
X105816256Y-87631553D01*
X105849910Y-87521119D01*
X105891364Y-87440298D01*
X105991679Y-87303870D01*
X106114045Y-87203569D01*
X106258432Y-87139416D01*
X106424806Y-87111435D01*
X106544701Y-87112320D01*
G37*
X106544701Y-87112320D02*
X106692415Y-87141724D01*
X106824708Y-87206786D01*
X106949830Y-87310635D01*
X107051495Y-87432326D01*
X107136130Y-87592533D01*
X107184078Y-87773433D01*
X107191239Y-87831876D01*
X107188568Y-88007946D01*
X107150451Y-88172135D01*
X107079752Y-88319485D01*
X106979332Y-88445034D01*
X106852055Y-88543822D01*
X106700783Y-88610889D01*
X106639471Y-88623706D01*
X106522491Y-88628555D01*
X106397786Y-88615246D01*
X106283536Y-88584910D01*
X106245261Y-88568610D01*
X106126138Y-88494800D01*
X106013745Y-88393870D01*
X105919029Y-88276766D01*
X105852937Y-88154433D01*
X105821796Y-88048996D01*
X105802268Y-87909904D01*
X105800398Y-87765952D01*
X105816256Y-87631553D01*
X105849910Y-87521119D01*
X105891364Y-87440298D01*
X105991679Y-87303870D01*
X106114045Y-87203569D01*
X106258432Y-87139416D01*
X106424806Y-87111435D01*
X106544701Y-87112320D01*
G36*
X104482406Y-91050419D02*
G01*
X104629535Y-91084533D01*
X104759554Y-91150976D01*
X104882143Y-91253656D01*
X104909056Y-91281976D01*
X105008023Y-91420365D01*
X105071834Y-91572523D01*
X105102024Y-91732932D01*
X105100129Y-91896076D01*
X105067684Y-92056437D01*
X105006224Y-92208498D01*
X104917285Y-92346743D01*
X104802402Y-92465654D01*
X104663110Y-92559714D01*
X104500946Y-92623407D01*
X104483977Y-92627725D01*
X104335363Y-92647395D01*
X104180432Y-92640083D01*
X104033386Y-92607516D01*
X103908424Y-92551419D01*
X103821364Y-92486761D01*
X103712097Y-92371895D01*
X103626040Y-92239600D01*
X103575125Y-92105302D01*
X103548307Y-91941835D01*
X103551954Y-91773010D01*
X103586896Y-91612160D01*
X103637030Y-91491671D01*
X103735996Y-91338865D01*
X103862292Y-91214487D01*
X104011589Y-91121713D01*
X104179557Y-91063720D01*
X104361867Y-91043683D01*
X104482406Y-91050419D01*
G37*
X104482406Y-91050419D02*
X104629535Y-91084533D01*
X104759554Y-91150976D01*
X104882143Y-91253656D01*
X104909056Y-91281976D01*
X105008023Y-91420365D01*
X105071834Y-91572523D01*
X105102024Y-91732932D01*
X105100129Y-91896076D01*
X105067684Y-92056437D01*
X105006224Y-92208498D01*
X104917285Y-92346743D01*
X104802402Y-92465654D01*
X104663110Y-92559714D01*
X104500946Y-92623407D01*
X104483977Y-92627725D01*
X104335363Y-92647395D01*
X104180432Y-92640083D01*
X104033386Y-92607516D01*
X103908424Y-92551419D01*
X103821364Y-92486761D01*
X103712097Y-92371895D01*
X103626040Y-92239600D01*
X103575125Y-92105302D01*
X103548307Y-91941835D01*
X103551954Y-91773010D01*
X103586896Y-91612160D01*
X103637030Y-91491671D01*
X103735996Y-91338865D01*
X103862292Y-91214487D01*
X104011589Y-91121713D01*
X104179557Y-91063720D01*
X104361867Y-91043683D01*
X104482406Y-91050419D01*
G36*
X108532034Y-83597817D02*
G01*
X108667505Y-83659440D01*
X108792744Y-83754085D01*
X108903077Y-83879570D01*
X108993831Y-84033714D01*
X109021081Y-84093750D01*
X109042410Y-84152899D01*
X109054378Y-84212355D01*
X109059630Y-84286119D01*
X109060814Y-84388192D01*
X109060059Y-84478144D01*
X109055818Y-84553412D01*
X109045604Y-84610866D01*
X109026944Y-84663617D01*
X108997367Y-84724780D01*
X108932364Y-84827523D01*
X108826131Y-84932778D01*
X108698335Y-85002572D01*
X108576221Y-85027819D01*
X108439501Y-85019761D01*
X108300535Y-84979875D01*
X108168525Y-84910830D01*
X108052673Y-84815293D01*
X107955718Y-84694698D01*
X107878547Y-84549929D01*
X107830087Y-84396394D01*
X107809986Y-84240089D01*
X107817890Y-84087014D01*
X107853447Y-83943165D01*
X107916305Y-83814540D01*
X108006112Y-83707137D01*
X108122514Y-83626954D01*
X108249081Y-83582359D01*
X108391001Y-83571396D01*
X108532034Y-83597817D01*
G37*
X108532034Y-83597817D02*
X108667505Y-83659440D01*
X108792744Y-83754085D01*
X108903077Y-83879570D01*
X108993831Y-84033714D01*
X109021081Y-84093750D01*
X109042410Y-84152899D01*
X109054378Y-84212355D01*
X109059630Y-84286119D01*
X109060814Y-84388192D01*
X109060059Y-84478144D01*
X109055818Y-84553412D01*
X109045604Y-84610866D01*
X109026944Y-84663617D01*
X108997367Y-84724780D01*
X108932364Y-84827523D01*
X108826131Y-84932778D01*
X108698335Y-85002572D01*
X108576221Y-85027819D01*
X108439501Y-85019761D01*
X108300535Y-84979875D01*
X108168525Y-84910830D01*
X108052673Y-84815293D01*
X107955718Y-84694698D01*
X107878547Y-84549929D01*
X107830087Y-84396394D01*
X107809986Y-84240089D01*
X107817890Y-84087014D01*
X107853447Y-83943165D01*
X107916305Y-83814540D01*
X108006112Y-83707137D01*
X108122514Y-83626954D01*
X108249081Y-83582359D01*
X108391001Y-83571396D01*
X108532034Y-83597817D01*
G36*
X113362088Y-90778771D02*
G01*
X113430710Y-90799711D01*
X113493436Y-90844204D01*
X113567447Y-90922139D01*
X113631853Y-91014777D01*
X113675491Y-91108057D01*
X113685280Y-91143753D01*
X113701329Y-91244816D01*
X113708852Y-91360760D01*
X113707053Y-91473095D01*
X113695134Y-91563332D01*
X113683143Y-91606187D01*
X113628845Y-91729811D01*
X113552117Y-91843147D01*
X113461116Y-91935530D01*
X113363998Y-91996294D01*
X113335717Y-92003777D01*
X113270186Y-92010569D01*
X113193983Y-92010532D01*
X113175116Y-92009138D01*
X113058353Y-91979310D01*
X112956342Y-91912273D01*
X112865530Y-91805813D01*
X112863008Y-91802063D01*
X112805198Y-91681528D01*
X112772156Y-91538394D01*
X112764501Y-91384427D01*
X112782855Y-91231393D01*
X112827837Y-91091058D01*
X112866337Y-91018366D01*
X112939604Y-90918176D01*
X113022794Y-90838113D01*
X113106185Y-90788738D01*
X113179959Y-90772799D01*
X113272031Y-90769582D01*
X113362088Y-90778771D01*
G37*
X113362088Y-90778771D02*
X113430710Y-90799711D01*
X113493436Y-90844204D01*
X113567447Y-90922139D01*
X113631853Y-91014777D01*
X113675491Y-91108057D01*
X113685280Y-91143753D01*
X113701329Y-91244816D01*
X113708852Y-91360760D01*
X113707053Y-91473095D01*
X113695134Y-91563332D01*
X113683143Y-91606187D01*
X113628845Y-91729811D01*
X113552117Y-91843147D01*
X113461116Y-91935530D01*
X113363998Y-91996294D01*
X113335717Y-92003777D01*
X113270186Y-92010569D01*
X113193983Y-92010532D01*
X113175116Y-92009138D01*
X113058353Y-91979310D01*
X112956342Y-91912273D01*
X112865530Y-91805813D01*
X112863008Y-91802063D01*
X112805198Y-91681528D01*
X112772156Y-91538394D01*
X112764501Y-91384427D01*
X112782855Y-91231393D01*
X112827837Y-91091058D01*
X112866337Y-91018366D01*
X112939604Y-90918176D01*
X113022794Y-90838113D01*
X113106185Y-90788738D01*
X113179959Y-90772799D01*
X113272031Y-90769582D01*
X113362088Y-90778771D01*
G36*
X110385159Y-90888035D02*
G01*
X110504095Y-90953433D01*
X110609159Y-91053336D01*
X110694803Y-91187311D01*
X110714830Y-91229901D01*
X110735628Y-91285661D01*
X110747534Y-91343691D01*
X110752931Y-91417334D01*
X110754200Y-91519933D01*
X110753928Y-91572921D01*
X110750685Y-91662460D01*
X110741970Y-91729370D01*
X110725538Y-91787071D01*
X110699143Y-91848982D01*
X110624236Y-91980042D01*
X110523201Y-92092920D01*
X110399851Y-92174676D01*
X110368307Y-92189486D01*
X110271580Y-92220112D01*
X110162669Y-92228818D01*
X110034614Y-92211789D01*
X109914139Y-92159953D01*
X109811844Y-92078455D01*
X109729599Y-91972498D01*
X109669276Y-91847285D01*
X109632745Y-91708020D01*
X109621878Y-91559906D01*
X109638547Y-91408147D01*
X109684621Y-91257947D01*
X109761973Y-91114509D01*
X109776537Y-91093775D01*
X109881630Y-90980154D01*
X110000585Y-90903202D01*
X110127857Y-90862487D01*
X110257897Y-90857575D01*
X110385159Y-90888035D01*
G37*
X110385159Y-90888035D02*
X110504095Y-90953433D01*
X110609159Y-91053336D01*
X110694803Y-91187311D01*
X110714830Y-91229901D01*
X110735628Y-91285661D01*
X110747534Y-91343691D01*
X110752931Y-91417334D01*
X110754200Y-91519933D01*
X110753928Y-91572921D01*
X110750685Y-91662460D01*
X110741970Y-91729370D01*
X110725538Y-91787071D01*
X110699143Y-91848982D01*
X110624236Y-91980042D01*
X110523201Y-92092920D01*
X110399851Y-92174676D01*
X110368307Y-92189486D01*
X110271580Y-92220112D01*
X110162669Y-92228818D01*
X110034614Y-92211789D01*
X109914139Y-92159953D01*
X109811844Y-92078455D01*
X109729599Y-91972498D01*
X109669276Y-91847285D01*
X109632745Y-91708020D01*
X109621878Y-91559906D01*
X109638547Y-91408147D01*
X109684621Y-91257947D01*
X109761973Y-91114509D01*
X109776537Y-91093775D01*
X109881630Y-90980154D01*
X110000585Y-90903202D01*
X110127857Y-90862487D01*
X110257897Y-90857575D01*
X110385159Y-90888035D01*
G36*
X110212505Y-87367704D02*
G01*
X110346253Y-87399650D01*
X110465682Y-87465589D01*
X110578451Y-87569684D01*
X110655712Y-87674632D01*
X110718890Y-87811326D01*
X110753804Y-87957151D01*
X110761782Y-88106154D01*
X110744155Y-88252382D01*
X110702252Y-88389884D01*
X110637403Y-88512708D01*
X110550936Y-88614900D01*
X110444183Y-88690508D01*
X110318472Y-88733580D01*
X110290514Y-88738053D01*
X110143211Y-88738216D01*
X110006549Y-88698645D01*
X109883301Y-88620993D01*
X109776242Y-88506913D01*
X109688144Y-88358056D01*
X109673695Y-88326106D01*
X109652204Y-88267684D01*
X109639667Y-88207416D01*
X109633813Y-88131825D01*
X109632367Y-88027433D01*
X109632367Y-88026577D01*
X109634300Y-87917381D01*
X109641269Y-87837850D01*
X109655098Y-87775520D01*
X109677607Y-87717925D01*
X109740344Y-87608915D01*
X109837673Y-87499085D01*
X109951708Y-87419460D01*
X110076378Y-87374072D01*
X110205614Y-87366956D01*
X110212505Y-87367704D01*
G37*
X110212505Y-87367704D02*
X110346253Y-87399650D01*
X110465682Y-87465589D01*
X110578451Y-87569684D01*
X110655712Y-87674632D01*
X110718890Y-87811326D01*
X110753804Y-87957151D01*
X110761782Y-88106154D01*
X110744155Y-88252382D01*
X110702252Y-88389884D01*
X110637403Y-88512708D01*
X110550936Y-88614900D01*
X110444183Y-88690508D01*
X110318472Y-88733580D01*
X110290514Y-88738053D01*
X110143211Y-88738216D01*
X110006549Y-88698645D01*
X109883301Y-88620993D01*
X109776242Y-88506913D01*
X109688144Y-88358056D01*
X109673695Y-88326106D01*
X109652204Y-88267684D01*
X109639667Y-88207416D01*
X109633813Y-88131825D01*
X109632367Y-88027433D01*
X109632367Y-88026577D01*
X109634300Y-87917381D01*
X109641269Y-87837850D01*
X109655098Y-87775520D01*
X109677607Y-87717925D01*
X109740344Y-87608915D01*
X109837673Y-87499085D01*
X109951708Y-87419460D01*
X110076378Y-87374072D01*
X110205614Y-87366956D01*
X110212505Y-87367704D01*
G36*
X106640774Y-90983221D02*
G01*
X106794768Y-91028963D01*
X106928197Y-91108304D01*
X107037805Y-91217773D01*
X107120337Y-91353901D01*
X107172537Y-91513215D01*
X107191152Y-91692246D01*
X107179990Y-91848129D01*
X107133796Y-92018110D01*
X107050428Y-92169796D01*
X106928428Y-92306596D01*
X106833881Y-92384870D01*
X106732814Y-92444272D01*
X106622096Y-92482320D01*
X106491254Y-92500285D01*
X106337704Y-92485334D01*
X106191710Y-92434058D01*
X106059468Y-92349621D01*
X105947179Y-92235187D01*
X105861040Y-92093918D01*
X105848514Y-92066181D01*
X105823787Y-92001969D01*
X105809449Y-91939980D01*
X105802815Y-91865384D01*
X105801200Y-91763350D01*
X105801616Y-91700509D01*
X105805467Y-91618236D01*
X105815803Y-91554422D01*
X105835548Y-91494042D01*
X105867626Y-91422071D01*
X105949076Y-91280457D01*
X106063613Y-91148278D01*
X106197707Y-91052066D01*
X106349373Y-90993196D01*
X106516625Y-90973041D01*
X106640774Y-90983221D01*
G37*
X106640774Y-90983221D02*
X106794768Y-91028963D01*
X106928197Y-91108304D01*
X107037805Y-91217773D01*
X107120337Y-91353901D01*
X107172537Y-91513215D01*
X107191152Y-91692246D01*
X107179990Y-91848129D01*
X107133796Y-92018110D01*
X107050428Y-92169796D01*
X106928428Y-92306596D01*
X106833881Y-92384870D01*
X106732814Y-92444272D01*
X106622096Y-92482320D01*
X106491254Y-92500285D01*
X106337704Y-92485334D01*
X106191710Y-92434058D01*
X106059468Y-92349621D01*
X105947179Y-92235187D01*
X105861040Y-92093918D01*
X105848514Y-92066181D01*
X105823787Y-92001969D01*
X105809449Y-91939980D01*
X105802815Y-91865384D01*
X105801200Y-91763350D01*
X105801616Y-91700509D01*
X105805467Y-91618236D01*
X105815803Y-91554422D01*
X105835548Y-91494042D01*
X105867626Y-91422071D01*
X105949076Y-91280457D01*
X106063613Y-91148278D01*
X106197707Y-91052066D01*
X106349373Y-90993196D01*
X106516625Y-90973041D01*
X106640774Y-90983221D01*
G36*
X106516769Y-83244461D02*
G01*
X106664729Y-83289910D01*
X106806132Y-83368643D01*
X106935034Y-83480077D01*
X106986460Y-83538498D01*
X107090733Y-83696958D01*
X107155998Y-83870239D01*
X107183849Y-84062066D01*
X107184776Y-84140807D01*
X107163268Y-84314387D01*
X107109039Y-84463503D01*
X107023149Y-84586441D01*
X106906655Y-84681490D01*
X106760615Y-84746937D01*
X106656790Y-84770790D01*
X106536019Y-84772370D01*
X106403000Y-84744213D01*
X106399430Y-84743144D01*
X106234132Y-84673241D01*
X106091639Y-84569408D01*
X105970363Y-84430190D01*
X105868720Y-84254133D01*
X105840706Y-84192487D01*
X105819448Y-84133535D01*
X105807670Y-84074510D01*
X105802715Y-84001336D01*
X105801929Y-83899933D01*
X105803626Y-83827297D01*
X105818855Y-83692217D01*
X105853323Y-83581353D01*
X105911222Y-83483698D01*
X105996741Y-83388245D01*
X106092989Y-83313629D01*
X106224955Y-83255738D01*
X106368197Y-83232876D01*
X106516769Y-83244461D01*
G37*
X106516769Y-83244461D02*
X106664729Y-83289910D01*
X106806132Y-83368643D01*
X106935034Y-83480077D01*
X106986460Y-83538498D01*
X107090733Y-83696958D01*
X107155998Y-83870239D01*
X107183849Y-84062066D01*
X107184776Y-84140807D01*
X107163268Y-84314387D01*
X107109039Y-84463503D01*
X107023149Y-84586441D01*
X106906655Y-84681490D01*
X106760615Y-84746937D01*
X106656790Y-84770790D01*
X106536019Y-84772370D01*
X106403000Y-84744213D01*
X106399430Y-84743144D01*
X106234132Y-84673241D01*
X106091639Y-84569408D01*
X105970363Y-84430190D01*
X105868720Y-84254133D01*
X105840706Y-84192487D01*
X105819448Y-84133535D01*
X105807670Y-84074510D01*
X105802715Y-84001336D01*
X105801929Y-83899933D01*
X105803626Y-83827297D01*
X105818855Y-83692217D01*
X105853323Y-83581353D01*
X105911222Y-83483698D01*
X105996741Y-83388245D01*
X106092989Y-83313629D01*
X106224955Y-83255738D01*
X106368197Y-83232876D01*
X106516769Y-83244461D01*
G36*
X105696940Y-93012449D02*
G01*
X105801200Y-93048788D01*
X105807873Y-93052318D01*
X105920491Y-93131841D01*
X106023310Y-93239341D01*
X106103392Y-93361433D01*
X106126491Y-93415895D01*
X106157112Y-93539723D01*
X106170657Y-93679766D01*
X106166120Y-93820947D01*
X106142497Y-93948185D01*
X106104425Y-94050575D01*
X106016227Y-94202398D01*
X105899780Y-94336681D01*
X105762631Y-94445285D01*
X105612326Y-94520069D01*
X105604735Y-94522710D01*
X105468655Y-94551337D01*
X105320507Y-94553387D01*
X105176079Y-94529929D01*
X105051163Y-94482033D01*
X104964321Y-94425778D01*
X104850208Y-94312660D01*
X104767666Y-94173348D01*
X104718151Y-94010582D01*
X104703118Y-93827100D01*
X104710815Y-93720755D01*
X104754595Y-93539638D01*
X104834137Y-93375732D01*
X104946254Y-93233617D01*
X105087762Y-93117871D01*
X105255475Y-93033074D01*
X105307780Y-93016657D01*
X105434917Y-92995943D01*
X105569741Y-92994687D01*
X105696940Y-93012449D01*
G37*
X105696940Y-93012449D02*
X105801200Y-93048788D01*
X105807873Y-93052318D01*
X105920491Y-93131841D01*
X106023310Y-93239341D01*
X106103392Y-93361433D01*
X106126491Y-93415895D01*
X106157112Y-93539723D01*
X106170657Y-93679766D01*
X106166120Y-93820947D01*
X106142497Y-93948185D01*
X106104425Y-94050575D01*
X106016227Y-94202398D01*
X105899780Y-94336681D01*
X105762631Y-94445285D01*
X105612326Y-94520069D01*
X105604735Y-94522710D01*
X105468655Y-94551337D01*
X105320507Y-94553387D01*
X105176079Y-94529929D01*
X105051163Y-94482033D01*
X104964321Y-94425778D01*
X104850208Y-94312660D01*
X104767666Y-94173348D01*
X104718151Y-94010582D01*
X104703118Y-93827100D01*
X104710815Y-93720755D01*
X104754595Y-93539638D01*
X104834137Y-93375732D01*
X104946254Y-93233617D01*
X105087762Y-93117871D01*
X105255475Y-93033074D01*
X105307780Y-93016657D01*
X105434917Y-92995943D01*
X105569741Y-92994687D01*
X105696940Y-93012449D01*
G36*
X104438818Y-86965469D02*
G01*
X104541783Y-86989416D01*
X104595311Y-87010869D01*
X104746563Y-87099294D01*
X104880630Y-87218508D01*
X104989287Y-87360219D01*
X105064309Y-87516137D01*
X105076617Y-87557532D01*
X105097722Y-87684486D01*
X105102356Y-87823549D01*
X105090577Y-87957663D01*
X105062441Y-88069766D01*
X105049926Y-88100618D01*
X104965312Y-88249815D01*
X104852373Y-88376844D01*
X104717932Y-88475229D01*
X104568808Y-88538494D01*
X104406774Y-88563934D01*
X104237548Y-88551573D01*
X104072168Y-88502513D01*
X103917906Y-88418930D01*
X103782036Y-88303002D01*
X103722669Y-88235190D01*
X103631012Y-88094842D01*
X103575213Y-87943532D01*
X103551028Y-87771499D01*
X103550818Y-87665718D01*
X103578838Y-87484842D01*
X103642538Y-87324720D01*
X103740525Y-87187604D01*
X103871405Y-87075745D01*
X104033783Y-86991396D01*
X104079077Y-86977200D01*
X104190368Y-86959427D01*
X104315980Y-86955495D01*
X104438818Y-86965469D01*
G37*
X104438818Y-86965469D02*
X104541783Y-86989416D01*
X104595311Y-87010869D01*
X104746563Y-87099294D01*
X104880630Y-87218508D01*
X104989287Y-87360219D01*
X105064309Y-87516137D01*
X105076617Y-87557532D01*
X105097722Y-87684486D01*
X105102356Y-87823549D01*
X105090577Y-87957663D01*
X105062441Y-88069766D01*
X105049926Y-88100618D01*
X104965312Y-88249815D01*
X104852373Y-88376844D01*
X104717932Y-88475229D01*
X104568808Y-88538494D01*
X104406774Y-88563934D01*
X104237548Y-88551573D01*
X104072168Y-88502513D01*
X103917906Y-88418930D01*
X103782036Y-88303002D01*
X103722669Y-88235190D01*
X103631012Y-88094842D01*
X103575213Y-87943532D01*
X103551028Y-87771499D01*
X103550818Y-87665718D01*
X103578838Y-87484842D01*
X103642538Y-87324720D01*
X103740525Y-87187604D01*
X103871405Y-87075745D01*
X104033783Y-86991396D01*
X104079077Y-86977200D01*
X104190368Y-86959427D01*
X104315980Y-86955495D01*
X104438818Y-86965469D01*
G36*
X112618470Y-85921879D02*
G01*
X112661694Y-85941745D01*
X112731335Y-85986489D01*
X112798155Y-86041097D01*
X112892505Y-86151405D01*
X112963994Y-86284090D01*
X113008108Y-86428007D01*
X113025290Y-86576600D01*
X113015983Y-86723307D01*
X112980628Y-86861570D01*
X112919667Y-86984831D01*
X112833544Y-87086530D01*
X112722700Y-87160108D01*
X112698643Y-87169734D01*
X112597380Y-87188031D01*
X112486244Y-87181666D01*
X112384033Y-87151136D01*
X112298848Y-87099068D01*
X112194809Y-86994611D01*
X112105043Y-86852683D01*
X112101177Y-86845106D01*
X112075731Y-86790899D01*
X112059435Y-86741379D01*
X112050281Y-86684796D01*
X112046261Y-86609398D01*
X112045367Y-86503433D01*
X112045434Y-86459684D01*
X112046948Y-86368492D01*
X112052110Y-86303819D01*
X112063077Y-86254192D01*
X112082009Y-86208137D01*
X112111064Y-86154183D01*
X112166859Y-86071738D01*
X112264009Y-85979223D01*
X112375155Y-85921808D01*
X112495055Y-85901894D01*
X112618470Y-85921879D01*
G37*
X112618470Y-85921879D02*
X112661694Y-85941745D01*
X112731335Y-85986489D01*
X112798155Y-86041097D01*
X112892505Y-86151405D01*
X112963994Y-86284090D01*
X113008108Y-86428007D01*
X113025290Y-86576600D01*
X113015983Y-86723307D01*
X112980628Y-86861570D01*
X112919667Y-86984831D01*
X112833544Y-87086530D01*
X112722700Y-87160108D01*
X112698643Y-87169734D01*
X112597380Y-87188031D01*
X112486244Y-87181666D01*
X112384033Y-87151136D01*
X112298848Y-87099068D01*
X112194809Y-86994611D01*
X112105043Y-86852683D01*
X112101177Y-86845106D01*
X112075731Y-86790899D01*
X112059435Y-86741379D01*
X112050281Y-86684796D01*
X112046261Y-86609398D01*
X112045367Y-86503433D01*
X112045434Y-86459684D01*
X112046948Y-86368492D01*
X112052110Y-86303819D01*
X112063077Y-86254192D01*
X112082009Y-86208137D01*
X112111064Y-86154183D01*
X112166859Y-86071738D01*
X112264009Y-85979223D01*
X112375155Y-85921808D01*
X112495055Y-85901894D01*
X112618470Y-85921879D01*
G36*
X111936836Y-87513759D02*
G01*
X112053303Y-87584390D01*
X112155102Y-87692559D01*
X112240013Y-87836933D01*
X112252517Y-87864333D01*
X112276995Y-87927454D01*
X112291194Y-87988826D01*
X112297766Y-88063123D01*
X112299367Y-88165016D01*
X112299172Y-88208689D01*
X112296068Y-88297366D01*
X112287201Y-88363255D01*
X112270042Y-88420383D01*
X112242061Y-88482781D01*
X112237594Y-88491732D01*
X112158125Y-88616041D01*
X112062907Y-88710492D01*
X111958059Y-88768920D01*
X111859808Y-88793648D01*
X111743441Y-88790854D01*
X111621879Y-88750247D01*
X111522081Y-88690991D01*
X111414093Y-88585428D01*
X111335112Y-88451531D01*
X111286630Y-88292016D01*
X111270138Y-88109601D01*
X111275371Y-87997955D01*
X111303976Y-87856575D01*
X111360527Y-87735707D01*
X111448440Y-87626085D01*
X111479486Y-87595150D01*
X111541461Y-87542083D01*
X111598570Y-87510403D01*
X111665100Y-87491217D01*
X111668785Y-87490460D01*
X111807923Y-87482004D01*
X111936836Y-87513759D01*
G37*
X111936836Y-87513759D02*
X112053303Y-87584390D01*
X112155102Y-87692559D01*
X112240013Y-87836933D01*
X112252517Y-87864333D01*
X112276995Y-87927454D01*
X112291194Y-87988826D01*
X112297766Y-88063123D01*
X112299367Y-88165016D01*
X112299172Y-88208689D01*
X112296068Y-88297366D01*
X112287201Y-88363255D01*
X112270042Y-88420383D01*
X112242061Y-88482781D01*
X112237594Y-88491732D01*
X112158125Y-88616041D01*
X112062907Y-88710492D01*
X111958059Y-88768920D01*
X111859808Y-88793648D01*
X111743441Y-88790854D01*
X111621879Y-88750247D01*
X111522081Y-88690991D01*
X111414093Y-88585428D01*
X111335112Y-88451531D01*
X111286630Y-88292016D01*
X111270138Y-88109601D01*
X111275371Y-87997955D01*
X111303976Y-87856575D01*
X111360527Y-87735707D01*
X111448440Y-87626085D01*
X111479486Y-87595150D01*
X111541461Y-87542083D01*
X111598570Y-87510403D01*
X111665100Y-87491217D01*
X111668785Y-87490460D01*
X111807923Y-87482004D01*
X111936836Y-87513759D01*
G36*
X111834818Y-90814750D02*
G01*
X111849265Y-90815814D01*
X111968604Y-90839334D01*
X112066664Y-90890877D01*
X112150028Y-90975203D01*
X112225283Y-91097074D01*
X112257834Y-91162501D01*
X112280589Y-91219694D01*
X112292993Y-91276049D01*
X112298106Y-91345951D01*
X112298984Y-91443786D01*
X112298848Y-91472192D01*
X112295949Y-91568003D01*
X112287481Y-91639064D01*
X112271024Y-91699479D01*
X112244159Y-91763350D01*
X112230618Y-91791391D01*
X112155009Y-91916297D01*
X112067551Y-92007755D01*
X111961565Y-92073084D01*
X111945463Y-92080275D01*
X111813337Y-92116690D01*
X111686152Y-92114015D01*
X111568241Y-92075143D01*
X111463940Y-92002967D01*
X111377583Y-91900380D01*
X111313505Y-91770275D01*
X111276041Y-91615545D01*
X111269410Y-91551006D01*
X111274044Y-91376251D01*
X111310996Y-91214630D01*
X111377897Y-91071769D01*
X111472380Y-90953294D01*
X111592075Y-90864834D01*
X111627734Y-90846188D01*
X111689414Y-90821608D01*
X111751562Y-90812549D01*
X111834818Y-90814750D01*
G37*
X111834818Y-90814750D02*
X111849265Y-90815814D01*
X111968604Y-90839334D01*
X112066664Y-90890877D01*
X112150028Y-90975203D01*
X112225283Y-91097074D01*
X112257834Y-91162501D01*
X112280589Y-91219694D01*
X112292993Y-91276049D01*
X112298106Y-91345951D01*
X112298984Y-91443786D01*
X112298848Y-91472192D01*
X112295949Y-91568003D01*
X112287481Y-91639064D01*
X112271024Y-91699479D01*
X112244159Y-91763350D01*
X112230618Y-91791391D01*
X112155009Y-91916297D01*
X112067551Y-92007755D01*
X111961565Y-92073084D01*
X111945463Y-92080275D01*
X111813337Y-92116690D01*
X111686152Y-92114015D01*
X111568241Y-92075143D01*
X111463940Y-92002967D01*
X111377583Y-91900380D01*
X111313505Y-91770275D01*
X111276041Y-91615545D01*
X111269410Y-91551006D01*
X111274044Y-91376251D01*
X111310996Y-91214630D01*
X111377897Y-91071769D01*
X111472380Y-90953294D01*
X111592075Y-90864834D01*
X111627734Y-90846188D01*
X111689414Y-90821608D01*
X111751562Y-90812549D01*
X111834818Y-90814750D01*
G36*
X111878944Y-94138030D02*
G01*
X111986476Y-94156088D01*
X112083178Y-94202857D01*
X112164161Y-94282428D01*
X112235867Y-94399519D01*
X112256200Y-94441270D01*
X112279193Y-94498850D01*
X112292163Y-94556151D01*
X112297848Y-94627365D01*
X112298984Y-94726683D01*
X112298829Y-94757199D01*
X112295829Y-94851576D01*
X112287080Y-94922018D01*
X112270020Y-94983043D01*
X112242088Y-95049167D01*
X112213653Y-95107135D01*
X112141015Y-95225896D01*
X112059731Y-95315263D01*
X111962119Y-95384434D01*
X111877193Y-95422753D01*
X111751553Y-95447970D01*
X111628587Y-95439407D01*
X111519299Y-95396756D01*
X111486794Y-95374140D01*
X111405015Y-95291902D01*
X111336368Y-95188155D01*
X111291590Y-95077935D01*
X111277027Y-94984905D01*
X111274546Y-94865103D01*
X111283829Y-94738056D01*
X111303660Y-94620029D01*
X111332820Y-94527286D01*
X111338930Y-94513962D01*
X111420625Y-94376829D01*
X111523043Y-94263893D01*
X111638238Y-94184084D01*
X111657380Y-94174600D01*
X111726160Y-94147109D01*
X111792729Y-94136314D01*
X111878944Y-94138030D01*
G37*
X111878944Y-94138030D02*
X111986476Y-94156088D01*
X112083178Y-94202857D01*
X112164161Y-94282428D01*
X112235867Y-94399519D01*
X112256200Y-94441270D01*
X112279193Y-94498850D01*
X112292163Y-94556151D01*
X112297848Y-94627365D01*
X112298984Y-94726683D01*
X112298829Y-94757199D01*
X112295829Y-94851576D01*
X112287080Y-94922018D01*
X112270020Y-94983043D01*
X112242088Y-95049167D01*
X112213653Y-95107135D01*
X112141015Y-95225896D01*
X112059731Y-95315263D01*
X111962119Y-95384434D01*
X111877193Y-95422753D01*
X111751553Y-95447970D01*
X111628587Y-95439407D01*
X111519299Y-95396756D01*
X111486794Y-95374140D01*
X111405015Y-95291902D01*
X111336368Y-95188155D01*
X111291590Y-95077935D01*
X111277027Y-94984905D01*
X111274546Y-94865103D01*
X111283829Y-94738056D01*
X111303660Y-94620029D01*
X111332820Y-94527286D01*
X111338930Y-94513962D01*
X111420625Y-94376829D01*
X111523043Y-94263893D01*
X111638238Y-94184084D01*
X111657380Y-94174600D01*
X111726160Y-94147109D01*
X111792729Y-94136314D01*
X111878944Y-94138030D01*
G36*
X108518814Y-90918577D02*
G01*
X108655175Y-90944229D01*
X108772889Y-91003277D01*
X108881871Y-91100050D01*
X108931944Y-91157798D01*
X108994810Y-91250437D01*
X109034380Y-91347687D01*
X109054963Y-91461694D01*
X109060867Y-91604600D01*
X109060568Y-91660069D01*
X109057251Y-91748701D01*
X109048415Y-91815118D01*
X109031786Y-91872800D01*
X109005089Y-91935223D01*
X108934347Y-92058043D01*
X108831942Y-92180437D01*
X108714408Y-92275686D01*
X108589611Y-92336198D01*
X108540807Y-92344586D01*
X108465275Y-92348990D01*
X108380479Y-92348194D01*
X108305709Y-92341174D01*
X108167529Y-92302778D01*
X108050496Y-92230426D01*
X107951571Y-92121909D01*
X107867718Y-91975016D01*
X107867060Y-91973593D01*
X107839768Y-91907282D01*
X107823714Y-91844403D01*
X107816277Y-91769745D01*
X107814836Y-91668100D01*
X107822401Y-91533109D01*
X107854065Y-91382937D01*
X107913521Y-91252100D01*
X108004141Y-91131033D01*
X108052701Y-91081040D01*
X108176051Y-90988190D01*
X108310840Y-90934174D01*
X108462003Y-90916683D01*
X108518814Y-90918577D01*
G37*
X108518814Y-90918577D02*
X108655175Y-90944229D01*
X108772889Y-91003277D01*
X108881871Y-91100050D01*
X108931944Y-91157798D01*
X108994810Y-91250437D01*
X109034380Y-91347687D01*
X109054963Y-91461694D01*
X109060867Y-91604600D01*
X109060568Y-91660069D01*
X109057251Y-91748701D01*
X109048415Y-91815118D01*
X109031786Y-91872800D01*
X109005089Y-91935223D01*
X108934347Y-92058043D01*
X108831942Y-92180437D01*
X108714408Y-92275686D01*
X108589611Y-92336198D01*
X108540807Y-92344586D01*
X108465275Y-92348990D01*
X108380479Y-92348194D01*
X108305709Y-92341174D01*
X108167529Y-92302778D01*
X108050496Y-92230426D01*
X107951571Y-92121909D01*
X107867718Y-91975016D01*
X107867060Y-91973593D01*
X107839768Y-91907282D01*
X107823714Y-91844403D01*
X107816277Y-91769745D01*
X107814836Y-91668100D01*
X107822401Y-91533109D01*
X107854065Y-91382937D01*
X107913521Y-91252100D01*
X108004141Y-91131033D01*
X108052701Y-91081040D01*
X108176051Y-90988190D01*
X108310840Y-90934174D01*
X108462003Y-90916683D01*
X108518814Y-90918577D01*
G36*
X107656221Y-89082633D02*
G01*
X107744306Y-89115130D01*
X107878126Y-89196358D01*
X107987151Y-89304383D01*
X108070072Y-89433553D01*
X108125582Y-89578220D01*
X108152374Y-89732731D01*
X108149141Y-89891438D01*
X108114576Y-90048689D01*
X108047372Y-90198834D01*
X107946222Y-90336222D01*
X107901838Y-90379383D01*
X107823142Y-90441608D01*
X107748533Y-90486838D01*
X107696045Y-90509628D01*
X107636831Y-90526028D01*
X107568008Y-90532164D01*
X107473367Y-90530612D01*
X107388595Y-90523376D01*
X107234747Y-90484720D01*
X107105305Y-90412462D01*
X106997372Y-90304701D01*
X106908047Y-90159531D01*
X106902650Y-90148531D01*
X106872828Y-90083957D01*
X106853993Y-90029442D01*
X106843642Y-89971890D01*
X106839268Y-89898206D01*
X106838367Y-89795295D01*
X106839245Y-89696919D01*
X106843478Y-89621374D01*
X106853232Y-89564285D01*
X106870675Y-89513328D01*
X106897971Y-89456183D01*
X106968492Y-89340867D01*
X107079951Y-89217431D01*
X107208809Y-89127744D01*
X107350712Y-89073950D01*
X107501301Y-89058198D01*
X107656221Y-89082633D01*
G37*
X107656221Y-89082633D02*
X107744306Y-89115130D01*
X107878126Y-89196358D01*
X107987151Y-89304383D01*
X108070072Y-89433553D01*
X108125582Y-89578220D01*
X108152374Y-89732731D01*
X108149141Y-89891438D01*
X108114576Y-90048689D01*
X108047372Y-90198834D01*
X107946222Y-90336222D01*
X107901838Y-90379383D01*
X107823142Y-90441608D01*
X107748533Y-90486838D01*
X107696045Y-90509628D01*
X107636831Y-90526028D01*
X107568008Y-90532164D01*
X107473367Y-90530612D01*
X107388595Y-90523376D01*
X107234747Y-90484720D01*
X107105305Y-90412462D01*
X106997372Y-90304701D01*
X106908047Y-90159531D01*
X106902650Y-90148531D01*
X106872828Y-90083957D01*
X106853993Y-90029442D01*
X106843642Y-89971890D01*
X106839268Y-89898206D01*
X106838367Y-89795295D01*
X106839245Y-89696919D01*
X106843478Y-89621374D01*
X106853232Y-89564285D01*
X106870675Y-89513328D01*
X106897971Y-89456183D01*
X106968492Y-89340867D01*
X107079951Y-89217431D01*
X107208809Y-89127744D01*
X107350712Y-89073950D01*
X107501301Y-89058198D01*
X107656221Y-89082633D01*
G36*
X103349292Y-88997485D02*
G01*
X103519720Y-89060960D01*
X103671321Y-89160044D01*
X103799889Y-89291866D01*
X103901217Y-89453558D01*
X103924689Y-89504200D01*
X103943237Y-89557388D01*
X103953819Y-89615181D01*
X103958589Y-89690146D01*
X103959700Y-89794850D01*
X103959103Y-89875364D01*
X103955282Y-89958517D01*
X103946064Y-90021494D01*
X103929332Y-90077098D01*
X103902972Y-90138132D01*
X103848098Y-90236319D01*
X103736960Y-90373777D01*
X103601334Y-90487293D01*
X103449070Y-90570739D01*
X103288020Y-90617989D01*
X103192482Y-90627799D01*
X103018926Y-90618138D01*
X102850834Y-90576258D01*
X102701788Y-90504782D01*
X102643705Y-90462321D01*
X102544000Y-90366133D01*
X102454297Y-90252760D01*
X102387443Y-90137223D01*
X102344908Y-90009447D01*
X102322111Y-89853689D01*
X102324016Y-89695556D01*
X102351679Y-89552329D01*
X102360133Y-89526889D01*
X102438807Y-89362883D01*
X102548863Y-89222847D01*
X102685062Y-89110361D01*
X102842166Y-89029004D01*
X103014934Y-88982356D01*
X103198128Y-88973998D01*
X103349292Y-88997485D01*
G37*
X103349292Y-88997485D02*
X103519720Y-89060960D01*
X103671321Y-89160044D01*
X103799889Y-89291866D01*
X103901217Y-89453558D01*
X103924689Y-89504200D01*
X103943237Y-89557388D01*
X103953819Y-89615181D01*
X103958589Y-89690146D01*
X103959700Y-89794850D01*
X103959103Y-89875364D01*
X103955282Y-89958517D01*
X103946064Y-90021494D01*
X103929332Y-90077098D01*
X103902972Y-90138132D01*
X103848098Y-90236319D01*
X103736960Y-90373777D01*
X103601334Y-90487293D01*
X103449070Y-90570739D01*
X103288020Y-90617989D01*
X103192482Y-90627799D01*
X103018926Y-90618138D01*
X102850834Y-90576258D01*
X102701788Y-90504782D01*
X102643705Y-90462321D01*
X102544000Y-90366133D01*
X102454297Y-90252760D01*
X102387443Y-90137223D01*
X102344908Y-90009447D01*
X102322111Y-89853689D01*
X102324016Y-89695556D01*
X102351679Y-89552329D01*
X102360133Y-89526889D01*
X102438807Y-89362883D01*
X102548863Y-89222847D01*
X102685062Y-89110361D01*
X102842166Y-89029004D01*
X103014934Y-88982356D01*
X103198128Y-88973998D01*
X103349292Y-88997485D01*
G36*
X106622055Y-94843605D02*
G01*
X106720945Y-94848288D01*
X106791285Y-94860132D01*
X106843373Y-94880618D01*
X106908949Y-94921573D01*
X107029526Y-95029330D01*
X107120185Y-95158694D01*
X107122420Y-95162945D01*
X107147163Y-95214262D01*
X107163090Y-95262164D01*
X107172107Y-95318084D01*
X107176120Y-95393456D01*
X107177033Y-95499711D01*
X107176952Y-95546622D01*
X107175272Y-95637684D01*
X107169565Y-95704070D01*
X107157434Y-95758334D01*
X107136484Y-95813030D01*
X107104318Y-95880711D01*
X107064802Y-95952810D01*
X106957452Y-96097618D01*
X106828290Y-96217498D01*
X106684246Y-96306651D01*
X106532252Y-96359280D01*
X106468839Y-96367125D01*
X106360440Y-96365831D01*
X106250621Y-96351489D01*
X106160750Y-96326012D01*
X106086013Y-96283826D01*
X105993008Y-96205515D01*
X105911190Y-96110535D01*
X105853466Y-96012072D01*
X105832241Y-95957006D01*
X105795458Y-95787675D01*
X105796272Y-95614591D01*
X105832374Y-95443715D01*
X105901458Y-95281005D01*
X106001215Y-95132420D01*
X106129340Y-95003920D01*
X106283523Y-94901463D01*
X106301407Y-94892239D01*
X106359124Y-94866745D01*
X106415927Y-94851956D01*
X106486210Y-94845092D01*
X106584367Y-94843375D01*
X106622055Y-94843605D01*
G37*
X106622055Y-94843605D02*
X106720945Y-94848288D01*
X106791285Y-94860132D01*
X106843373Y-94880618D01*
X106908949Y-94921573D01*
X107029526Y-95029330D01*
X107120185Y-95158694D01*
X107122420Y-95162945D01*
X107147163Y-95214262D01*
X107163090Y-95262164D01*
X107172107Y-95318084D01*
X107176120Y-95393456D01*
X107177033Y-95499711D01*
X107176952Y-95546622D01*
X107175272Y-95637684D01*
X107169565Y-95704070D01*
X107157434Y-95758334D01*
X107136484Y-95813030D01*
X107104318Y-95880711D01*
X107064802Y-95952810D01*
X106957452Y-96097618D01*
X106828290Y-96217498D01*
X106684246Y-96306651D01*
X106532252Y-96359280D01*
X106468839Y-96367125D01*
X106360440Y-96365831D01*
X106250621Y-96351489D01*
X106160750Y-96326012D01*
X106086013Y-96283826D01*
X105993008Y-96205515D01*
X105911190Y-96110535D01*
X105853466Y-96012072D01*
X105832241Y-95957006D01*
X105795458Y-95787675D01*
X105796272Y-95614591D01*
X105832374Y-95443715D01*
X105901458Y-95281005D01*
X106001215Y-95132420D01*
X106129340Y-95003920D01*
X106283523Y-94901463D01*
X106301407Y-94892239D01*
X106359124Y-94866745D01*
X106415927Y-94851956D01*
X106486210Y-94845092D01*
X106584367Y-94843375D01*
X106622055Y-94843605D01*
G36*
X105423610Y-83277391D02*
G01*
X105403188Y-83325783D01*
X105363561Y-83404425D01*
X105306583Y-83510095D01*
X105234108Y-83639572D01*
X105147987Y-83789636D01*
X105050076Y-83957065D01*
X104942226Y-84138639D01*
X104826291Y-84331136D01*
X104704126Y-84531335D01*
X104577582Y-84736016D01*
X104480645Y-84890725D01*
X104249523Y-85252546D01*
X103993748Y-85644160D01*
X103714725Y-86063465D01*
X103413858Y-86508360D01*
X103092551Y-86976744D01*
X102752210Y-87466516D01*
X102676976Y-87574139D01*
X102553153Y-87751309D01*
X102436839Y-87917780D01*
X102330430Y-88070124D01*
X102236317Y-88204913D01*
X102156894Y-88318722D01*
X102094552Y-88408121D01*
X102051687Y-88469683D01*
X102030689Y-88499982D01*
X102023762Y-88510748D01*
X101990834Y-88571902D01*
X101952466Y-88654349D01*
X101915604Y-88743398D01*
X101899525Y-88786006D01*
X101799171Y-89118152D01*
X101738707Y-89458978D01*
X101718444Y-89803809D01*
X101738691Y-90147974D01*
X101799761Y-90486798D01*
X101811822Y-90535750D01*
X101835301Y-90626022D01*
X101859484Y-90708341D01*
X101886533Y-90786567D01*
X101918612Y-90864563D01*
X101957884Y-90946190D01*
X102006514Y-91035309D01*
X102066663Y-91135782D01*
X102140496Y-91251470D01*
X102230176Y-91386236D01*
X102337866Y-91543940D01*
X102465730Y-91728444D01*
X102615930Y-91943609D01*
X102876003Y-92316693D01*
X103184297Y-92762610D01*
X103470322Y-93180892D01*
X103736163Y-93574771D01*
X103983905Y-93947474D01*
X104215635Y-94302233D01*
X104433436Y-94642276D01*
X104639394Y-94970834D01*
X104835595Y-95291137D01*
X105024124Y-95606413D01*
X105207065Y-95919894D01*
X105386505Y-96234808D01*
X105386713Y-96235176D01*
X105418742Y-96296309D01*
X105437032Y-96339888D01*
X105437629Y-96356500D01*
X105436533Y-96356303D01*
X105412046Y-96337339D01*
X105363288Y-96289690D01*
X105293117Y-96216551D01*
X105204389Y-96121117D01*
X105099962Y-96006581D01*
X104982693Y-95876139D01*
X104855438Y-95732986D01*
X104721055Y-95580315D01*
X104582399Y-95421321D01*
X104442330Y-95259199D01*
X104303702Y-95097144D01*
X104169373Y-94938350D01*
X104069587Y-94819301D01*
X103933820Y-94656047D01*
X103799731Y-94493136D01*
X103664865Y-94327449D01*
X103526770Y-94155872D01*
X103382993Y-93975289D01*
X103231080Y-93782583D01*
X103068578Y-93574637D01*
X102893034Y-93348337D01*
X102701994Y-93100566D01*
X102493006Y-92828208D01*
X102263617Y-92528147D01*
X102011372Y-92197266D01*
X101929774Y-92089904D01*
X101789428Y-91903720D01*
X101671385Y-91744244D01*
X101572978Y-91607225D01*
X101491538Y-91488413D01*
X101424400Y-91383555D01*
X101368896Y-91288401D01*
X101322359Y-91198701D01*
X101282122Y-91110203D01*
X101245517Y-91018657D01*
X101209878Y-90919810D01*
X101156480Y-90758911D01*
X101114711Y-90613529D01*
X101083900Y-90476114D01*
X101062513Y-90336632D01*
X101049016Y-90185047D01*
X101041877Y-90011325D01*
X101039560Y-89805433D01*
X101039952Y-89691863D01*
X101044969Y-89490091D01*
X101056827Y-89315712D01*
X101076954Y-89158923D01*
X101106779Y-89009920D01*
X101147730Y-88858899D01*
X101201236Y-88696057D01*
X101217410Y-88650416D01*
X101261437Y-88533238D01*
X101306283Y-88427428D01*
X101355659Y-88326679D01*
X101413279Y-88224687D01*
X101482852Y-88115147D01*
X101568091Y-87991753D01*
X101672708Y-87848200D01*
X101800414Y-87678183D01*
X101820407Y-87651807D01*
X102103848Y-87278489D01*
X102364552Y-86936361D01*
X102604682Y-86622668D01*
X102826398Y-86334656D01*
X103031862Y-86069569D01*
X103223236Y-85824654D01*
X103402682Y-85597155D01*
X103572362Y-85384318D01*
X103734436Y-85183388D01*
X103891066Y-84991610D01*
X104044415Y-84806229D01*
X104196644Y-84624491D01*
X104314346Y-84485577D01*
X104456955Y-84319117D01*
X104599430Y-84154640D01*
X104739040Y-83995174D01*
X104873055Y-83843743D01*
X104998747Y-83703373D01*
X105113383Y-83577091D01*
X105214236Y-83467920D01*
X105298574Y-83378889D01*
X105363667Y-83313020D01*
X105406786Y-83273342D01*
X105425201Y-83262878D01*
X105423610Y-83277391D01*
G37*
X105423610Y-83277391D02*
X105403188Y-83325783D01*
X105363561Y-83404425D01*
X105306583Y-83510095D01*
X105234108Y-83639572D01*
X105147987Y-83789636D01*
X105050076Y-83957065D01*
X104942226Y-84138639D01*
X104826291Y-84331136D01*
X104704126Y-84531335D01*
X104577582Y-84736016D01*
X104480645Y-84890725D01*
X104249523Y-85252546D01*
X103993748Y-85644160D01*
X103714725Y-86063465D01*
X103413858Y-86508360D01*
X103092551Y-86976744D01*
X102752210Y-87466516D01*
X102676976Y-87574139D01*
X102553153Y-87751309D01*
X102436839Y-87917780D01*
X102330430Y-88070124D01*
X102236317Y-88204913D01*
X102156894Y-88318722D01*
X102094552Y-88408121D01*
X102051687Y-88469683D01*
X102030689Y-88499982D01*
X102023762Y-88510748D01*
X101990834Y-88571902D01*
X101952466Y-88654349D01*
X101915604Y-88743398D01*
X101899525Y-88786006D01*
X101799171Y-89118152D01*
X101738707Y-89458978D01*
X101718444Y-89803809D01*
X101738691Y-90147974D01*
X101799761Y-90486798D01*
X101811822Y-90535750D01*
X101835301Y-90626022D01*
X101859484Y-90708341D01*
X101886533Y-90786567D01*
X101918612Y-90864563D01*
X101957884Y-90946190D01*
X102006514Y-91035309D01*
X102066663Y-91135782D01*
X102140496Y-91251470D01*
X102230176Y-91386236D01*
X102337866Y-91543940D01*
X102465730Y-91728444D01*
X102615930Y-91943609D01*
X102876003Y-92316693D01*
X103184297Y-92762610D01*
X103470322Y-93180892D01*
X103736163Y-93574771D01*
X103983905Y-93947474D01*
X104215635Y-94302233D01*
X104433436Y-94642276D01*
X104639394Y-94970834D01*
X104835595Y-95291137D01*
X105024124Y-95606413D01*
X105207065Y-95919894D01*
X105386505Y-96234808D01*
X105386713Y-96235176D01*
X105418742Y-96296309D01*
X105437032Y-96339888D01*
X105437629Y-96356500D01*
X105436533Y-96356303D01*
X105412046Y-96337339D01*
X105363288Y-96289690D01*
X105293117Y-96216551D01*
X105204389Y-96121117D01*
X105099962Y-96006581D01*
X104982693Y-95876139D01*
X104855438Y-95732986D01*
X104721055Y-95580315D01*
X104582399Y-95421321D01*
X104442330Y-95259199D01*
X104303702Y-95097144D01*
X104169373Y-94938350D01*
X104069587Y-94819301D01*
X103933820Y-94656047D01*
X103799731Y-94493136D01*
X103664865Y-94327449D01*
X103526770Y-94155872D01*
X103382993Y-93975289D01*
X103231080Y-93782583D01*
X103068578Y-93574637D01*
X102893034Y-93348337D01*
X102701994Y-93100566D01*
X102493006Y-92828208D01*
X102263617Y-92528147D01*
X102011372Y-92197266D01*
X101929774Y-92089904D01*
X101789428Y-91903720D01*
X101671385Y-91744244D01*
X101572978Y-91607225D01*
X101491538Y-91488413D01*
X101424400Y-91383555D01*
X101368896Y-91288401D01*
X101322359Y-91198701D01*
X101282122Y-91110203D01*
X101245517Y-91018657D01*
X101209878Y-90919810D01*
X101156480Y-90758911D01*
X101114711Y-90613529D01*
X101083900Y-90476114D01*
X101062513Y-90336632D01*
X101049016Y-90185047D01*
X101041877Y-90011325D01*
X101039560Y-89805433D01*
X101039952Y-89691863D01*
X101044969Y-89490091D01*
X101056827Y-89315712D01*
X101076954Y-89158923D01*
X101106779Y-89009920D01*
X101147730Y-88858899D01*
X101201236Y-88696057D01*
X101217410Y-88650416D01*
X101261437Y-88533238D01*
X101306283Y-88427428D01*
X101355659Y-88326679D01*
X101413279Y-88224687D01*
X101482852Y-88115147D01*
X101568091Y-87991753D01*
X101672708Y-87848200D01*
X101800414Y-87678183D01*
X101820407Y-87651807D01*
X102103848Y-87278489D01*
X102364552Y-86936361D01*
X102604682Y-86622668D01*
X102826398Y-86334656D01*
X103031862Y-86069569D01*
X103223236Y-85824654D01*
X103402682Y-85597155D01*
X103572362Y-85384318D01*
X103734436Y-85183388D01*
X103891066Y-84991610D01*
X104044415Y-84806229D01*
X104196644Y-84624491D01*
X104314346Y-84485577D01*
X104456955Y-84319117D01*
X104599430Y-84154640D01*
X104739040Y-83995174D01*
X104873055Y-83843743D01*
X104998747Y-83703373D01*
X105113383Y-83577091D01*
X105214236Y-83467920D01*
X105298574Y-83378889D01*
X105363667Y-83313020D01*
X105406786Y-83273342D01*
X105425201Y-83262878D01*
X105423610Y-83277391D01*
%TD*%
M02*
