M48
; DRILL file {KiCad (7.0.0)} date Wed Mar 22 16:08:02 2023
; FORMAT={-:-/ absolute / inch / decimal}
; #@! TF.CreationDate,2023-03-22T16:08:02+00:00
; #@! TF.GenerationSoftware,Kicad,Pcbnew,(7.0.0)
; #@! TF.FileFunction,Plated,1,4,PTH
FMAT,2
INCH
; #@! TA.AperFunction,Plated,PTH,ViaDrill
T1C0.0098
; #@! TA.AperFunction,Plated,PTH,ViaDrill
T2C0.0157
%
G90
G05
T1
X3.7717Y-3.3685
X3.7717Y-3.4528
X3.8268Y-3.3685
X3.8268Y-3.4528
X3.874Y-3.3685
X3.874Y-3.4528
X3.8907Y-3.7165
X3.8917Y-3.7953
X3.935Y-3.7165
X3.937Y-3.7953
X3.9528Y-3.3685
X3.9528Y-3.4528
X3.9793Y-3.7165
X3.9823Y-3.7953
X3.9921Y-3.3685
X3.9921Y-3.4528
X4.0256Y-3.7166
X4.0276Y-3.6417
X4.0276Y-3.6811
X4.0276Y-3.6024
X4.0276Y-3.4527
X4.0295Y-3.7952
X4.0352Y-3.3685
X4.0385Y-3.4907
X4.0385Y-3.5644
X4.0591Y-3.8937
X4.0664Y-3.5365
X4.0675Y-3.7844
X4.0827Y-3.2283
X4.0852Y-3.3933
X4.0954Y-3.7564
X4.1024Y-3.4252
X4.1044Y-3.5295
X4.1063Y-3.6417
X4.1063Y-3.6811
X4.1063Y-3.7185
X4.1063Y-3.6044
X4.1082Y-3.4508
X4.1457Y-3.6044
X4.1555Y-3.5295
X4.1575Y-3.4508
X4.2283Y-3.3819
X4.2323Y-3.685
X4.2362Y-3.8031
X4.2598Y-3.4606
X4.2598Y-3.5945
X4.311Y-3.4882
X4.3189Y-3.6083
X4.3189Y-3.6614
X4.3189Y-3.7185
X4.3298Y-3.7564
X4.3298Y-3.5703
X4.3577Y-3.7844
X4.3622Y-3.4882
X4.374Y-3.4016
X4.378Y-3.2323
X4.3957Y-3.7952
X4.3977Y-3.6614
X4.3977Y-3.7165
X4.3996Y-3.6102
X4.4134Y-3.4882
X4.4213Y-3.9134
X4.4433Y-3.7953
X4.4465Y-3.7165
X4.4528Y-3.6102
X4.4803Y-3.4881
X4.4804Y-3.4449
X4.489Y-3.7953
X4.4912Y-3.4069
X4.4913Y-3.7165
X4.5054Y-3.6102
X4.5192Y-3.379
X4.5346Y-3.7953
X4.5362Y-3.7165
X4.5481Y-3.5281
X4.5571Y-3.3682
X4.5581Y-3.6102
X4.559Y-3.4901
X4.5591Y-3.4469
X4.5803Y-3.7953
X4.5811Y-3.7165
T2
X3.7874Y-3.8661
X3.9843Y-3.1024
X3.9843Y-3.9882
X4.1811Y-3.1024
X4.1811Y-3.9882
X4.378Y-3.1024
X4.378Y-3.9882
X4.5748Y-3.1024
X4.5748Y-3.2992
X4.5748Y-3.9882
X4.6654Y-3.5709
X4.6811Y-3.5157
X4.6811Y-3.8661
X4.685Y-3.2992
X4.685Y-3.6457
T0
M30
