%TF.GenerationSoftware,KiCad,Pcbnew,(7.0.0)*%
%TF.CreationDate,2023-03-22T16:08:00+00:00*%
%TF.ProjectId,B3LPD,42334c50-442e-46b6-9963-61645f706362,rev?*%
%TF.SameCoordinates,Original*%
%TF.FileFunction,Legend,Top*%
%TF.FilePolarity,Positive*%
%FSLAX46Y46*%
G04 Gerber Fmt 4.6, Leading zero omitted, Abs format (unit mm)*
G04 Created by KiCad (PCBNEW (7.0.0)) date 2023-03-22 16:08:00*
%MOMM*%
%LPD*%
G01*
G04 APERTURE LIST*
%ADD10C,0.150000*%
%ADD11C,0.120000*%
%ADD12C,0.100000*%
%ADD13C,0.250000*%
%ADD14C,0.260000*%
G04 APERTURE END LIST*
D10*
X99838095Y-92867380D02*
X99838095Y-93676904D01*
X99838095Y-93676904D02*
X99885714Y-93772142D01*
X99885714Y-93772142D02*
X99933333Y-93819761D01*
X99933333Y-93819761D02*
X100028571Y-93867380D01*
X100028571Y-93867380D02*
X100219047Y-93867380D01*
X100219047Y-93867380D02*
X100314285Y-93819761D01*
X100314285Y-93819761D02*
X100361904Y-93772142D01*
X100361904Y-93772142D02*
X100409523Y-93676904D01*
X100409523Y-93676904D02*
X100409523Y-92867380D01*
X101361904Y-93867380D02*
X100885714Y-93867380D01*
X100885714Y-93867380D02*
X100885714Y-92867380D01*
X105890476Y-98058571D02*
X106033333Y-98106190D01*
X106033333Y-98106190D02*
X106080952Y-98153809D01*
X106080952Y-98153809D02*
X106128571Y-98249047D01*
X106128571Y-98249047D02*
X106128571Y-98391904D01*
X106128571Y-98391904D02*
X106080952Y-98487142D01*
X106080952Y-98487142D02*
X106033333Y-98534761D01*
X106033333Y-98534761D02*
X105938095Y-98582380D01*
X105938095Y-98582380D02*
X105557143Y-98582380D01*
X105557143Y-98582380D02*
X105557143Y-97582380D01*
X105557143Y-97582380D02*
X105890476Y-97582380D01*
X105890476Y-97582380D02*
X105985714Y-97630000D01*
X105985714Y-97630000D02*
X106033333Y-97677619D01*
X106033333Y-97677619D02*
X106080952Y-97772857D01*
X106080952Y-97772857D02*
X106080952Y-97868095D01*
X106080952Y-97868095D02*
X106033333Y-97963333D01*
X106033333Y-97963333D02*
X105985714Y-98010952D01*
X105985714Y-98010952D02*
X105890476Y-98058571D01*
X105890476Y-98058571D02*
X105557143Y-98058571D01*
X106461905Y-97582380D02*
X107080952Y-97582380D01*
X107080952Y-97582380D02*
X106747619Y-97963333D01*
X106747619Y-97963333D02*
X106890476Y-97963333D01*
X106890476Y-97963333D02*
X106985714Y-98010952D01*
X106985714Y-98010952D02*
X107033333Y-98058571D01*
X107033333Y-98058571D02*
X107080952Y-98153809D01*
X107080952Y-98153809D02*
X107080952Y-98391904D01*
X107080952Y-98391904D02*
X107033333Y-98487142D01*
X107033333Y-98487142D02*
X106985714Y-98534761D01*
X106985714Y-98534761D02*
X106890476Y-98582380D01*
X106890476Y-98582380D02*
X106604762Y-98582380D01*
X106604762Y-98582380D02*
X106509524Y-98534761D01*
X106509524Y-98534761D02*
X106461905Y-98487142D01*
X107985714Y-98582380D02*
X107509524Y-98582380D01*
X107509524Y-98582380D02*
X107509524Y-97582380D01*
X108319048Y-98582380D02*
X108319048Y-97582380D01*
X108319048Y-97582380D02*
X108700000Y-97582380D01*
X108700000Y-97582380D02*
X108795238Y-97630000D01*
X108795238Y-97630000D02*
X108842857Y-97677619D01*
X108842857Y-97677619D02*
X108890476Y-97772857D01*
X108890476Y-97772857D02*
X108890476Y-97915714D01*
X108890476Y-97915714D02*
X108842857Y-98010952D01*
X108842857Y-98010952D02*
X108795238Y-98058571D01*
X108795238Y-98058571D02*
X108700000Y-98106190D01*
X108700000Y-98106190D02*
X108319048Y-98106190D01*
X109319048Y-98582380D02*
X109319048Y-97582380D01*
X109319048Y-97582380D02*
X109557143Y-97582380D01*
X109557143Y-97582380D02*
X109700000Y-97630000D01*
X109700000Y-97630000D02*
X109795238Y-97725238D01*
X109795238Y-97725238D02*
X109842857Y-97820476D01*
X109842857Y-97820476D02*
X109890476Y-98010952D01*
X109890476Y-98010952D02*
X109890476Y-98153809D01*
X109890476Y-98153809D02*
X109842857Y-98344285D01*
X109842857Y-98344285D02*
X109795238Y-98439523D01*
X109795238Y-98439523D02*
X109700000Y-98534761D01*
X109700000Y-98534761D02*
X109557143Y-98582380D01*
X109557143Y-98582380D02*
X109319048Y-98582380D01*
X113023809Y-84881666D02*
X113499999Y-84881666D01*
X112928571Y-85167380D02*
X113261904Y-84167380D01*
X113261904Y-84167380D02*
X113595237Y-85167380D01*
X113928571Y-85167380D02*
X113928571Y-84167380D01*
X113928571Y-84167380D02*
X114499999Y-85167380D01*
X114499999Y-85167380D02*
X114499999Y-84167380D01*
X114833333Y-84167380D02*
X115404761Y-84167380D01*
X115119047Y-85167380D02*
X115119047Y-84167380D01*
X99861904Y-89367380D02*
X99861904Y-88367380D01*
X99861904Y-88367380D02*
X100099999Y-88367380D01*
X100099999Y-88367380D02*
X100242856Y-88415000D01*
X100242856Y-88415000D02*
X100338094Y-88510238D01*
X100338094Y-88510238D02*
X100385713Y-88605476D01*
X100385713Y-88605476D02*
X100433332Y-88795952D01*
X100433332Y-88795952D02*
X100433332Y-88938809D01*
X100433332Y-88938809D02*
X100385713Y-89129285D01*
X100385713Y-89129285D02*
X100338094Y-89224523D01*
X100338094Y-89224523D02*
X100242856Y-89319761D01*
X100242856Y-89319761D02*
X100099999Y-89367380D01*
X100099999Y-89367380D02*
X99861904Y-89367380D01*
X101338094Y-89367380D02*
X100861904Y-89367380D01*
X100861904Y-89367380D02*
X100861904Y-88367380D01*
X113571427Y-97872142D02*
X113523808Y-97919761D01*
X113523808Y-97919761D02*
X113380951Y-97967380D01*
X113380951Y-97967380D02*
X113285713Y-97967380D01*
X113285713Y-97967380D02*
X113142856Y-97919761D01*
X113142856Y-97919761D02*
X113047618Y-97824523D01*
X113047618Y-97824523D02*
X112999999Y-97729285D01*
X112999999Y-97729285D02*
X112952380Y-97538809D01*
X112952380Y-97538809D02*
X112952380Y-97395952D01*
X112952380Y-97395952D02*
X112999999Y-97205476D01*
X112999999Y-97205476D02*
X113047618Y-97110238D01*
X113047618Y-97110238D02*
X113142856Y-97015000D01*
X113142856Y-97015000D02*
X113285713Y-96967380D01*
X113285713Y-96967380D02*
X113380951Y-96967380D01*
X113380951Y-96967380D02*
X113523808Y-97015000D01*
X113523808Y-97015000D02*
X113571427Y-97062619D01*
X113999999Y-97967380D02*
X113999999Y-96967380D01*
X113999999Y-96967380D02*
X114380951Y-96967380D01*
X114380951Y-96967380D02*
X114476189Y-97015000D01*
X114476189Y-97015000D02*
X114523808Y-97062619D01*
X114523808Y-97062619D02*
X114571427Y-97157857D01*
X114571427Y-97157857D02*
X114571427Y-97300714D01*
X114571427Y-97300714D02*
X114523808Y-97395952D01*
X114523808Y-97395952D02*
X114476189Y-97443571D01*
X114476189Y-97443571D02*
X114380951Y-97491190D01*
X114380951Y-97491190D02*
X113999999Y-97491190D01*
X115476189Y-97967380D02*
X114999999Y-97967380D01*
X114999999Y-97967380D02*
X114999999Y-96967380D01*
%TO.C,J4*%
X117366666Y-83267380D02*
X117366666Y-83981666D01*
X117366666Y-83981666D02*
X117319047Y-84124523D01*
X117319047Y-84124523D02*
X117223809Y-84219761D01*
X117223809Y-84219761D02*
X117080952Y-84267380D01*
X117080952Y-84267380D02*
X116985714Y-84267380D01*
X118271428Y-83600714D02*
X118271428Y-84267380D01*
X118033333Y-83219761D02*
X117795238Y-83934047D01*
X117795238Y-83934047D02*
X118414285Y-83934047D01*
%TO.C,J3*%
X117366666Y-92067380D02*
X117366666Y-92781666D01*
X117366666Y-92781666D02*
X117319047Y-92924523D01*
X117319047Y-92924523D02*
X117223809Y-93019761D01*
X117223809Y-93019761D02*
X117080952Y-93067380D01*
X117080952Y-93067380D02*
X116985714Y-93067380D01*
X117747619Y-92067380D02*
X118366666Y-92067380D01*
X118366666Y-92067380D02*
X118033333Y-92448333D01*
X118033333Y-92448333D02*
X118176190Y-92448333D01*
X118176190Y-92448333D02*
X118271428Y-92495952D01*
X118271428Y-92495952D02*
X118319047Y-92543571D01*
X118319047Y-92543571D02*
X118366666Y-92638809D01*
X118366666Y-92638809D02*
X118366666Y-92876904D01*
X118366666Y-92876904D02*
X118319047Y-92972142D01*
X118319047Y-92972142D02*
X118271428Y-93019761D01*
X118271428Y-93019761D02*
X118176190Y-93067380D01*
X118176190Y-93067380D02*
X117890476Y-93067380D01*
X117890476Y-93067380D02*
X117795238Y-93019761D01*
X117795238Y-93019761D02*
X117747619Y-92972142D01*
%TO.C,R1*%
X116833333Y-89867380D02*
X116500000Y-89391190D01*
X116261905Y-89867380D02*
X116261905Y-88867380D01*
X116261905Y-88867380D02*
X116642857Y-88867380D01*
X116642857Y-88867380D02*
X116738095Y-88915000D01*
X116738095Y-88915000D02*
X116785714Y-88962619D01*
X116785714Y-88962619D02*
X116833333Y-89057857D01*
X116833333Y-89057857D02*
X116833333Y-89200714D01*
X116833333Y-89200714D02*
X116785714Y-89295952D01*
X116785714Y-89295952D02*
X116738095Y-89343571D01*
X116738095Y-89343571D02*
X116642857Y-89391190D01*
X116642857Y-89391190D02*
X116261905Y-89391190D01*
X117785714Y-89867380D02*
X117214286Y-89867380D01*
X117500000Y-89867380D02*
X117500000Y-88867380D01*
X117500000Y-88867380D02*
X117404762Y-89010238D01*
X117404762Y-89010238D02*
X117309524Y-89105476D01*
X117309524Y-89105476D02*
X117214286Y-89153095D01*
%TO.C,J1*%
X99666666Y-83867380D02*
X99666666Y-84581666D01*
X99666666Y-84581666D02*
X99619047Y-84724523D01*
X99619047Y-84724523D02*
X99523809Y-84819761D01*
X99523809Y-84819761D02*
X99380952Y-84867380D01*
X99380952Y-84867380D02*
X99285714Y-84867380D01*
X100666666Y-84867380D02*
X100095238Y-84867380D01*
X100380952Y-84867380D02*
X100380952Y-83867380D01*
X100380952Y-83867380D02*
X100285714Y-84010238D01*
X100285714Y-84010238D02*
X100190476Y-84105476D01*
X100190476Y-84105476D02*
X100095238Y-84153095D01*
%TO.C,J2*%
X99666666Y-96967380D02*
X99666666Y-97681666D01*
X99666666Y-97681666D02*
X99619047Y-97824523D01*
X99619047Y-97824523D02*
X99523809Y-97919761D01*
X99523809Y-97919761D02*
X99380952Y-97967380D01*
X99380952Y-97967380D02*
X99285714Y-97967380D01*
X100095238Y-97062619D02*
X100142857Y-97015000D01*
X100142857Y-97015000D02*
X100238095Y-96967380D01*
X100238095Y-96967380D02*
X100476190Y-96967380D01*
X100476190Y-96967380D02*
X100571428Y-97015000D01*
X100571428Y-97015000D02*
X100619047Y-97062619D01*
X100619047Y-97062619D02*
X100666666Y-97157857D01*
X100666666Y-97157857D02*
X100666666Y-97253095D01*
X100666666Y-97253095D02*
X100619047Y-97395952D01*
X100619047Y-97395952D02*
X100047619Y-97967380D01*
X100047619Y-97967380D02*
X100666666Y-97967380D01*
%TO.C,U1*%
X107338095Y-87067380D02*
X107338095Y-87876904D01*
X107338095Y-87876904D02*
X107385714Y-87972142D01*
X107385714Y-87972142D02*
X107433333Y-88019761D01*
X107433333Y-88019761D02*
X107528571Y-88067380D01*
X107528571Y-88067380D02*
X107719047Y-88067380D01*
X107719047Y-88067380D02*
X107814285Y-88019761D01*
X107814285Y-88019761D02*
X107861904Y-87972142D01*
X107861904Y-87972142D02*
X107909523Y-87876904D01*
X107909523Y-87876904D02*
X107909523Y-87067380D01*
X108909523Y-88067380D02*
X108338095Y-88067380D01*
X108623809Y-88067380D02*
X108623809Y-87067380D01*
X108623809Y-87067380D02*
X108528571Y-87210238D01*
X108528571Y-87210238D02*
X108433333Y-87305476D01*
X108433333Y-87305476D02*
X108338095Y-87353095D01*
%TO.C,U2*%
X112538095Y-92167380D02*
X112538095Y-92976904D01*
X112538095Y-92976904D02*
X112585714Y-93072142D01*
X112585714Y-93072142D02*
X112633333Y-93119761D01*
X112633333Y-93119761D02*
X112728571Y-93167380D01*
X112728571Y-93167380D02*
X112919047Y-93167380D01*
X112919047Y-93167380D02*
X113014285Y-93119761D01*
X113014285Y-93119761D02*
X113061904Y-93072142D01*
X113061904Y-93072142D02*
X113109523Y-92976904D01*
X113109523Y-92976904D02*
X113109523Y-92167380D01*
X113538095Y-92262619D02*
X113585714Y-92215000D01*
X113585714Y-92215000D02*
X113680952Y-92167380D01*
X113680952Y-92167380D02*
X113919047Y-92167380D01*
X113919047Y-92167380D02*
X114014285Y-92215000D01*
X114014285Y-92215000D02*
X114061904Y-92262619D01*
X114061904Y-92262619D02*
X114109523Y-92357857D01*
X114109523Y-92357857D02*
X114109523Y-92453095D01*
X114109523Y-92453095D02*
X114061904Y-92595952D01*
X114061904Y-92595952D02*
X113490476Y-93167380D01*
X113490476Y-93167380D02*
X114109523Y-93167380D01*
D11*
%TO.C,J4*%
X117450000Y-88050000D02*
X120550000Y-88050000D01*
X120550000Y-88050000D02*
X120550000Y-85050000D01*
X120550000Y-85050000D02*
X117450000Y-85050000D01*
X117450000Y-85050000D02*
X117450000Y-88050000D01*
%TO.C,J3*%
X117450000Y-96900000D02*
X120550000Y-96900000D01*
X120550000Y-96900000D02*
X120550000Y-93900000D01*
X120550000Y-93900000D02*
X117450000Y-93900000D01*
X117450000Y-93900000D02*
X117450000Y-96900000D01*
%TO.C,R1*%
X116362742Y-90177500D02*
X116837258Y-90177500D01*
X116362742Y-91222500D02*
X116837258Y-91222500D01*
%TO.C,kibuzzard-64104D25*%
G36*
X107199645Y-100075590D02*
G01*
X107143447Y-100057969D01*
X107101855Y-100005105D01*
X107082805Y-99950848D01*
X107071375Y-99882056D01*
X107067565Y-99798730D01*
X107068151Y-99786030D01*
X107129795Y-99786030D01*
X107148845Y-99845085D01*
X107200915Y-99869850D01*
X107251080Y-99845085D01*
X107270765Y-99786030D01*
X107251080Y-99726340D01*
X107200915Y-99700940D01*
X107148845Y-99726340D01*
X107129795Y-99786030D01*
X107068151Y-99786030D01*
X107071375Y-99716109D01*
X107082805Y-99647741D01*
X107101855Y-99593625D01*
X107143447Y-99540761D01*
X107199645Y-99523140D01*
X107256636Y-99540761D01*
X107298070Y-99593625D01*
X107316767Y-99647741D01*
X107327986Y-99716109D01*
X107331725Y-99798730D01*
X107327986Y-99882056D01*
X107316767Y-99950848D01*
X107298070Y-100005105D01*
X107256636Y-100057969D01*
X107200915Y-100075197D01*
X107199645Y-100075590D01*
G37*
G36*
X107835915Y-100474793D02*
G01*
X107199645Y-100474793D01*
X106493525Y-100474793D01*
X106264925Y-100474793D01*
X106000342Y-100474793D01*
X105595466Y-100474793D01*
X105858864Y-99596800D01*
X106264925Y-99596800D01*
X106291952Y-99685184D01*
X106319694Y-99769996D01*
X106348150Y-99851237D01*
X106377320Y-99928905D01*
X106416478Y-100025778D01*
X106455213Y-100114043D01*
X106493525Y-100193700D01*
X106624335Y-100193700D01*
X106663282Y-100114043D01*
X106703922Y-100025778D01*
X106746255Y-99928905D01*
X106777926Y-99851237D01*
X106797471Y-99798730D01*
X106926595Y-99798730D01*
X106930961Y-99896203D01*
X106944058Y-99980340D01*
X106965886Y-100051142D01*
X106996445Y-100108610D01*
X107050067Y-100165054D01*
X107117801Y-100198921D01*
X107199645Y-100210210D01*
X107281489Y-100198921D01*
X107349223Y-100165054D01*
X107402845Y-100108610D01*
X107410949Y-100093370D01*
X107721615Y-100093370D01*
X107731140Y-100142265D01*
X107756540Y-100177825D01*
X107792735Y-100200050D01*
X107835915Y-100207670D01*
X107914655Y-100178460D01*
X107948945Y-100093370D01*
X107914655Y-100010820D01*
X107835915Y-99981610D01*
X107792735Y-99989230D01*
X107756540Y-100010820D01*
X107731140Y-100045745D01*
X107721615Y-100093370D01*
X107410949Y-100093370D01*
X107433404Y-100051142D01*
X107455232Y-99980340D01*
X107468329Y-99896203D01*
X107472695Y-99798730D01*
X107468329Y-99701853D01*
X107455232Y-99618231D01*
X107440705Y-99571400D01*
X108213105Y-99571400D01*
X108263905Y-99700940D01*
X108341375Y-99669825D01*
X108422655Y-99624740D01*
X108422655Y-100064160D01*
X108257555Y-100064160D01*
X108257555Y-100193700D01*
X108735075Y-100193700D01*
X108735075Y-100064160D01*
X108578865Y-100064160D01*
X108578865Y-99407570D01*
X108472185Y-99407570D01*
X108417575Y-99457100D01*
X108350265Y-99502820D01*
X108279145Y-99542190D01*
X108213105Y-99571400D01*
X107440705Y-99571400D01*
X107433404Y-99547865D01*
X107402845Y-99490755D01*
X107349223Y-99434663D01*
X107281489Y-99401008D01*
X107199645Y-99389790D01*
X107119071Y-99401079D01*
X107051761Y-99434946D01*
X106997715Y-99491390D01*
X106966600Y-99548699D01*
X106944375Y-99619025D01*
X106931040Y-99702369D01*
X106926595Y-99798730D01*
X106797471Y-99798730D01*
X106808167Y-99769996D01*
X106836981Y-99685184D01*
X106864365Y-99596800D01*
X106705615Y-99596800D01*
X106692439Y-99646647D01*
X106675770Y-99699670D01*
X106657037Y-99754439D01*
X106637670Y-99809525D01*
X106617826Y-99863976D01*
X106597665Y-99916840D01*
X106560835Y-100012090D01*
X106525910Y-99916840D01*
X106507654Y-99863976D01*
X106489715Y-99809525D01*
X106472411Y-99754439D01*
X106456060Y-99699670D01*
X106441296Y-99646647D01*
X106428755Y-99596800D01*
X106264925Y-99596800D01*
X105858864Y-99596800D01*
X106000342Y-99125207D01*
X106264925Y-99125207D01*
X108735075Y-99125207D01*
X108999658Y-99125207D01*
X109404534Y-99125207D01*
X108999658Y-100474793D01*
X108735075Y-100474793D01*
X107835915Y-100474793D01*
G37*
%TO.C,J2*%
X97750000Y-93900000D02*
X94650000Y-93900000D01*
X94650000Y-93900000D02*
X94650000Y-96900000D01*
X94650000Y-96900000D02*
X97750000Y-96900000D01*
X97750000Y-96900000D02*
X97750000Y-93900000D01*
D12*
%TO.C,U1*%
X106400000Y-88300000D02*
X108600000Y-88300000D01*
X108600000Y-88300000D02*
X108600000Y-90900000D01*
X108600000Y-90900000D02*
X106400000Y-90900000D01*
X106400000Y-90900000D02*
X106400000Y-88300000D01*
D13*
X106925000Y-87900000D02*
G75*
G03*
X106925000Y-87900000I-125000J0D01*
G01*
D11*
%TO.C,U2*%
X111800000Y-89350000D02*
X113400000Y-89350000D01*
X113400000Y-89350000D02*
X113400000Y-90950000D01*
X113400000Y-90950000D02*
X111800000Y-90950000D01*
X111800000Y-90950000D02*
X111800000Y-89350000D01*
D14*
X112730000Y-88950000D02*
G75*
G03*
X112730000Y-88950000I-130000J0D01*
G01*
%TD*%
M02*
